<svg width="685" height="417" viewBox="0 0 685 417" fill="none" xmlns="http://www.w3.org/2000/svg">
<g id="mind" clip-path="url(#clip0_0_1)">
<path id="Vector" d="M95.5456 411.041C148.314 411.041 191.091 372.56 191.091 325.09C191.091 277.621 148.314 239.139 95.5456 239.139C42.7772 239.139 0 277.621 0 325.09C0 372.56 42.7772 411.041 95.5456 411.041Z" fill="#F2F2F2"/>
<path id="Vector_2" d="M211.125 363.214C164.419 363.214 119.158 348.646 83.0538 321.991C46.9496 295.337 22.2361 258.245 13.1242 217.037C4.01219 175.828 11.0656 133.052 33.0825 95.9977C55.0994 58.943 90.7175 29.9021 133.868 13.8233C177.019 -2.25555 225.032 -4.37749 269.726 7.81902C314.421 20.0155 353.032 45.7759 378.981 80.7107C404.929 115.646 416.609 157.594 412.031 199.407C407.453 241.221 386.9 280.313 353.874 310.022C335.172 326.939 312.925 340.351 288.422 349.481C263.919 358.611 237.647 363.279 211.125 363.214V363.214ZM211.125 1.38632C100.659 1.38632 10.7874 82.2327 10.7874 181.607C10.7874 280.981 100.659 361.828 211.125 361.828C321.591 361.828 411.462 280.981 411.462 181.607C411.462 82.2327 321.591 1.38632 211.125 1.38632V1.38632Z" fill="#2F2E41"/>
<path id="blackball" d="M335.18 74.1678C356.458 74.1678 373.706 58.651 373.706 39.5101C373.706 20.3691 356.458 4.85226 335.18 4.85226C313.902 4.85226 296.654 20.3691 296.654 39.5101C296.654 58.651 313.902 74.1678 335.18 74.1678Z" fill="#3F3D56"/>
<path id="Vector_3" d="M685 409.655H22.3453V411.042H685V409.655Z" fill="#2F2E41"/>
<path id="Vector_4" d="M608.066 223.232L616.872 244.932C616.872 244.932 607.683 269.731 616.872 270.42C626.062 271.109 627.21 246.654 627.21 246.654L622.233 220.477L608.066 223.232Z" fill="#B06C49"/>
<path id="Vector_5" d="M612.278 152.279L618.787 158.134V186.033C618.787 186.033 622.616 191.2 621.85 192.578C621.084 193.955 620.318 193.955 621.084 194.989C621.85 196.022 622.616 196.711 621.85 197.4C621.477 197.847 621.276 198.391 621.276 198.95C621.276 199.509 621.477 200.052 621.85 200.5C622.616 201.188 624.147 202.222 622.999 203.255C621.85 204.288 620.318 203.599 621.85 207.388C623.381 211.177 626.062 212.21 625.296 213.588C624.53 214.966 624.53 218.41 624.53 218.41L608.066 220.477L604.62 181.556L612.278 152.279Z" fill="#D0CDE1"/>
<path id="Vector_6" d="M625.296 218.066L606.151 218.755L606.918 225.988L623.765 223.232L625.296 218.066Z" fill="#3F3D56"/>
<path id="Vector_7" d="M572.65 116.285L570.352 136.951L593.708 140.051L595.431 128.168L597.154 116.285H572.65Z" fill="#B06C49"/>
<path id="Vector_8" opacity="0.1" d="M572.65 116.285L570.352 136.951L593.708 140.051L595.431 128.168L597.154 116.285H572.65Z" fill="black"/>
<path id="Vector_9" d="M521.917 214.621L534.935 239.765C534.935 239.765 537.233 251.476 540.679 251.821C544.125 252.165 547.571 239.765 547.571 239.765L542.976 233.221L537.616 214.621L521.917 214.621Z" fill="#B06C49"/>
<path id="Vector_10" d="M549.102 237.354L538.381 252.509C538.381 252.509 528.044 396.828 529.575 395.795C531.107 394.762 536.084 394.417 537.999 391.662C539.913 388.906 551.782 391.662 551.782 391.662L558.674 385.117V379.951C558.674 378.917 572.458 300.042 572.458 300.042V320.019C572.458 320.019 568.246 393.384 575.138 392.695C582.03 392.006 596.197 387.873 596.197 387.873C596.197 387.873 616.49 250.787 610.363 245.621C604.237 240.454 601.557 228.743 601.557 228.743L549.102 237.354Z" fill="#2F2E41"/>
<path id="Vector_11" d="M585.476 123.001C595.626 123.001 603.854 115.599 603.854 106.469C603.854 97.3376 595.626 89.9356 585.476 89.9356C575.326 89.9356 567.098 97.3376 567.098 106.469C567.098 115.599 575.326 123.001 585.476 123.001Z" fill="#B06C49"/>
<path id="Vector_12" d="M544.508 140.223L541.827 138.846C541.827 138.846 529.958 146.079 526.129 162.267C522.3 178.456 519.62 182.589 519.62 182.589C519.62 182.589 515.791 183.278 518.471 185.689C521.152 188.1 521.152 187.755 518.854 189.133C516.557 190.511 515.026 187.755 516.557 190.511C518.089 193.266 520.003 192.578 518.471 194.3C516.94 196.022 514.26 196.022 515.791 197.4C517.323 198.777 514.26 201.877 516.174 203.255C518.089 204.633 518.854 204.977 518.854 207.388C518.843 208.795 519.102 210.194 519.62 211.522H539.53C539.53 211.522 535.701 204.977 536.85 203.6C537.999 202.222 538.381 200.844 537.616 200.155C536.85 199.466 534.553 200.844 536.85 199.122C539.147 197.4 539.913 198.433 539.147 196.366C538.381 194.3 536.85 195.333 538.381 194.3C539.913 193.266 541.062 193.611 540.296 192.578C539.53 191.544 537.999 191.544 539.53 190.855C541.062 190.166 542.21 190.855 541.827 189.133C541.445 187.411 541.062 188.1 541.827 187.411C542.593 186.722 550.634 163.3 550.634 162.612C550.634 161.923 544.508 140.223 544.508 140.223Z" fill="#D0CDE1"/>
<path id="Vector_13" d="M540.679 210.144L516.557 211.521L522.683 216.688L539.53 217.033L540.679 210.144Z" fill="#3F3D56"/>
<path id="Vector_14" d="M547.571 235.977L542.593 244.243C542.593 244.243 557.525 245.965 562.886 247.687C568.246 249.409 582.03 251.821 582.03 251.821L585.476 239.765L547.571 235.977Z" fill="#3F3D56"/>
<path id="Vector_15" d="M591.219 239.765L595.431 251.132L612.278 248.032L610.363 237.354L591.219 239.765Z" fill="#3F3D56"/>
<path id="Vector_16" d="M598.111 128.512C598.111 128.512 596.963 127.824 594.282 129.201C591.602 130.579 582.796 131.268 578.584 127.135C574.372 123.001 571.309 119.557 570.161 120.246C569.012 120.935 568.246 128.857 568.246 128.857L564.417 131.612L541.827 138.845L543.742 185.344L547.188 196.022C547.188 196.022 544.508 204.288 547.953 209.11C551.399 213.933 546.039 215.655 546.039 215.655C546.039 215.655 544.89 217.033 545.656 220.477C546.422 223.921 544.89 236.665 544.89 236.665C544.89 236.665 577.436 249.754 611.512 238.388L607.683 225.299L605.769 196.022C605.769 196.022 607.683 191.2 607.3 189.133C606.918 187.067 618.787 158.134 618.787 158.134C618.787 158.134 616.873 143.668 606.918 140.568C596.963 137.468 595.431 134.368 595.431 134.368C595.431 134.368 600.026 129.89 598.111 128.512Z" fill="#D0CDE1"/>
<path id="Vector_17" d="M566.97 108.586C566.97 108.586 565.062 106.011 565.796 103.238C566.234 101.663 566.408 100.038 566.31 98.4173C567.131 96.0147 568.162 93.6743 569.393 91.4178C570.934 88.9086 570.2 87.852 575.045 87.0596C579.889 86.2672 577.907 80.5884 590.68 86.7295C591.111 87.2707 591.71 87.685 592.402 87.92C593.095 88.1551 593.849 88.2004 594.57 88.0501C597.213 87.5879 598.167 90.8896 598.167 90.8896C598.167 90.8896 599.929 89.9651 600.589 91.2857C601.25 92.6064 605.96 90.4931 605.96 99.4076C605.96 108.322 600.6 116.285 600.6 116.285C600.6 116.285 600.993 101.29 592.258 99.771C583.523 98.2522 574.127 93.828 571.852 99.5069C570.623 102.694 568.985 105.741 566.97 108.586Z" fill="#2F2E41"/>
<path id="Vector_18" d="M600.791 112.152C601.743 112.152 602.514 111.226 602.514 110.085C602.514 108.944 601.743 108.018 600.791 108.018C599.84 108.018 599.068 108.944 599.068 110.085C599.068 111.226 599.84 112.152 600.791 112.152Z" fill="#B06C49"/>
<path id="Vector_19" d="M591.028 386.652L593.721 393.919C593.721 393.919 593.721 401.187 596.413 404.82C599.106 408.454 601.799 416.326 591.028 416.932C580.257 417.537 575.545 413.904 575.545 413.904C575.545 413.904 577.564 409.059 575.545 407.242C573.525 405.426 575.545 401.792 575.545 401.792L577.564 387.258L591.028 386.652Z" fill="#2F2E41"/>
<path id="Vector_20" d="M538.573 386.652L535.88 393.919C535.88 393.919 535.881 401.187 533.188 404.82C530.495 408.454 527.802 416.326 538.573 416.932C549.344 417.537 554.057 413.904 554.057 413.904C554.057 413.904 552.037 409.059 554.057 407.242C556.076 405.426 554.057 401.792 554.057 401.792L552.037 387.258L538.573 386.652Z" fill="#2F2E41"/>
<g id="girl" clip-path="url(#clip1_0_1)">
<path id="Vector_21" d="M406.934 209.125C405.648 219.912 401.945 228.476 396.449 235.536C394.636 237.861 392.633 240.04 390.458 242.054C371.213 259.97 338.548 267.139 308.095 281.427C218.204 323.602 219.098 238.962 229.013 187.923C233.013 167.328 243.659 149.295 258.706 136.309C261.866 133.578 265.227 131.071 268.763 128.808C285.355 118.181 305.773 112.987 327.855 115.618C365.74 120.133 395.462 146.056 404.584 178.681C407.356 188.609 408.153 198.941 406.934 209.125V209.125Z" fill="#39FF14"/>
<path id="Vector_22" d="M344.582 136.561L258.706 136.309C261.866 133.578 265.227 131.071 268.763 128.808L344.582 136.561Z" fill="#D0CDE1"/>
<path id="Vector_23" d="M396.449 235.536C394.636 237.861 392.633 240.04 390.458 242.054L318.907 224.979L396.449 235.536Z" fill="#D0CDE1"/>
<path id="Vector_24" d="M406.525 187.585L285.394 157.529L404.584 178.681C405.403 181.613 406.051 184.586 406.525 187.585V187.585Z" fill="#D0CDE1"/>
<g id="ball1">
<path id="Vector_25" d="M244.602 128.094C244.577 128.306 244.546 128.513 244.502 128.717C244.254 129.979 243.718 131.169 242.932 132.202C242.146 133.234 241.13 134.082 239.959 134.683C238.787 135.285 237.489 135.625 236.16 135.68C234.831 135.734 233.503 135.501 232.274 134.997C231.045 134.494 229.945 133.732 229.055 132.769C228.165 131.805 227.506 130.663 227.128 129.427C226.75 128.19 226.661 126.89 226.868 125.62C227.075 124.351 227.572 123.144 228.324 122.089C228.558 121.757 228.817 121.444 229.1 121.151C230.333 119.854 231.951 118.956 233.736 118.58C235.521 118.203 237.388 118.366 239.083 119.046C240.778 119.726 242.222 120.891 243.218 122.383C244.214 123.875 244.715 125.623 244.654 127.391C244.649 127.624 244.631 127.858 244.602 128.094Z" fill="#39FF14"/>
<path id="Vector_26" d="M244.602 128.094C244.577 128.306 244.546 128.513 244.502 128.717L231.373 125.584L244.654 127.391C244.649 127.624 244.631 127.858 244.602 128.094Z" fill="#D0CDE1"/>
<path id="Vector_27" d="M240.911 132.043L228.424 132.008C228.119 131.59 227.853 131.147 227.629 130.684L240.911 132.043Z" fill="#D0CDE1"/>
<path id="Vector_28" d="M238.55 122.119L228.324 122.089C228.558 121.757 228.817 121.444 229.1 121.151L238.55 122.119Z" fill="#D0CDE1"/>
</g>
<g id="ball2">
<path id="Vector_29" d="M348.045 297.236C347.92 297.411 347.791 297.579 347.654 297.738C346.822 298.736 345.768 299.54 344.571 300.092C343.373 300.643 342.06 300.929 340.729 300.927C339.398 300.925 338.082 300.636 336.876 300.082C335.67 299.527 334.606 298.72 333.759 297.72C332.913 296.721 332.307 295.553 331.984 294.302C331.662 293.051 331.632 291.748 331.896 290.489C332.16 289.23 332.711 288.046 333.511 287.024C334.31 286.001 335.336 285.165 336.516 284.578C336.883 284.392 337.265 284.234 337.658 284.105C339.381 283.522 341.252 283.466 343.018 283.944C344.785 284.422 346.361 285.411 347.536 286.777C348.71 288.144 349.425 289.822 349.586 291.586C349.746 293.35 349.343 295.114 348.431 296.641C348.314 296.844 348.184 297.041 348.045 297.236Z" fill="#39FF14"/>
<path id="Vector_30" d="M348.044 297.236C347.919 297.411 347.791 297.579 347.654 297.738L337.525 289.034L348.431 296.641C348.314 296.844 348.184 297.041 348.044 297.236Z" fill="#D0CDE1"/>
<path id="Vector_31" d="M342.854 299.036L331.794 293.347C331.726 292.841 331.705 292.331 331.73 291.822L342.854 299.036Z" fill="#D0CDE1"/>
<path id="Vector_32" d="M345.573 289.239L336.516 284.578C336.883 284.392 337.265 284.234 337.658 284.105L345.573 289.239Z" fill="#D0CDE1"/>
</g>
<g id="ball3">
<path id="Vector_33" d="M428.668 156.701C428.803 156.871 428.93 157.042 429.046 157.218C429.782 158.297 430.261 159.518 430.448 160.793C430.635 162.069 430.526 163.366 430.129 164.591C429.732 165.816 429.056 166.937 428.151 167.874C427.246 168.81 426.135 169.538 424.898 170.004C423.661 170.471 422.331 170.664 421.002 170.569C419.674 170.474 418.382 170.095 417.22 169.458C416.058 168.821 415.056 167.942 414.286 166.887C413.516 165.831 412.998 164.624 412.769 163.355C412.696 162.959 412.654 162.558 412.643 162.155C412.582 160.387 413.083 158.647 414.078 157.17C415.074 155.693 416.517 154.551 418.213 153.898C419.908 153.244 421.774 153.111 423.559 153.515C425.344 153.919 426.963 154.842 428.196 156.159C428.361 156.331 428.517 156.512 428.668 156.701Z" fill="#39FF14"/>
<path id="Vector_34" d="M428.668 156.702C428.803 156.871 428.93 157.042 429.046 157.218L417.46 163.82L428.196 156.159C428.361 156.331 428.517 156.512 428.668 156.702Z" fill="#D0CDE1"/>
<path id="Vector_35" d="M428.898 162.043L420.005 170.446C419.487 170.35 418.978 170.21 418.484 170.028L428.898 162.043Z" fill="#D0CDE1"/>
<path id="Vector_36" d="M420.054 156.475L412.769 163.355C412.696 162.959 412.654 162.558 412.643 162.155L420.054 156.475Z" fill="#D0CDE1"/>
</g>
<path id="Vector_37" d="M242.98 295.082C242.98 295.082 262.401 298.193 261.84 302.904C261.278 307.616 239.886 300.288 239.886 300.288L242.98 295.082Z" fill="#A0616A"/>
<path id="Vector_38" d="M205.1 363.836L168.792 357.12L169.411 338.08L159.315 353.602L124.101 344.627C128.47 314.884 144.941 287.381 146.222 283.551C147.503 279.722 151.38 263.73 151.38 263.73C155.801 256.875 174.502 258.41 189.018 260.809C195.036 261.797 200.342 262.939 203.609 263.695C205.768 264.191 207.04 264.518 207.04 264.518C212.178 271.016 214.993 279.371 216.249 288.48C220.782 321.298 205.1 363.836 205.1 363.836Z" fill="#2F2E41"/>
<path id="Vector_39" d="M186.155 176.815C197.382 178.153 207.53 170.448 208.822 159.606C210.114 148.764 202.061 138.891 190.834 137.553C179.608 136.215 169.459 143.92 168.167 154.761C166.875 165.603 174.929 175.477 186.155 176.815Z" fill="#A0616A"/>
<path id="Vector_40" d="M174.111 160.248C174.111 160.248 165.518 183.912 155.732 189.914C145.946 195.915 190.695 194.08 190.695 194.08C190.695 194.08 182.809 177.213 190.969 171.017C199.129 164.822 174.111 160.248 174.111 160.248Z" fill="#A0616A"/>
<path id="Vector_41" d="M203.601 265.701L189.939 265.538L151.721 265.093C151.721 265.093 151.597 264.608 151.38 263.73C149.5 256.188 140.488 219.499 140.289 208.78C140.067 196.807 158.826 184.708 158.826 184.708C158.826 184.708 175.462 183.505 180.341 184.086C185.219 184.667 203.892 194.06 203.892 194.06L203.635 258.147L203.609 263.695L203.601 265.701Z" fill="#D0CDE1"/>
<path id="Vector_42" opacity="0.15" d="M216.249 288.48L190.749 269.744C190.749 269.744 190.449 268.179 189.939 265.538C189.684 264.218 189.372 262.619 189.018 260.809C187.029 250.649 183.66 233.874 180.821 221.574C176.469 202.738 202.191 256.773 202.191 256.773L203.635 258.147L203.609 263.695C205.768 264.191 207.04 264.518 207.04 264.518C212.178 271.016 214.993 279.371 216.249 288.48Z" fill="black"/>
<path id="Vector_43" d="M190.695 194.08C190.695 194.08 181.347 203.319 185.7 222.155C190.052 240.991 195.628 270.325 195.628 270.325L239.605 302.644L247.046 295.566L207.069 257.354C207.069 257.354 212.555 197.482 204.705 194.157C196.854 190.832 190.695 194.08 190.695 194.08Z" fill="#D0CDE1"/>
<path id="Vector_44" d="M142.259 257.993C142.259 257.993 150.928 282.121 156.088 280.347C161.247 278.572 146.979 252.98 146.979 252.98L142.259 257.993Z" fill="#A0616A"/>
<path id="Vector_45" d="M148.479 195.42L101.267 224.836C101.267 224.836 83.6953 233.891 112.844 245.329C141.993 256.766 143.87 261.768 143.87 261.768C143.87 261.768 148.339 251.948 152.218 254.003L119.22 233.346L149.643 220.247L148.479 195.42Z" fill="#D0CDE1"/>
<path id="Vector_46" d="M134.292 167.066C136.682 166.254 141.937 164.666 146.505 162.543C147.226 153.951 149.243 146.313 152.927 142.577C155.188 138.859 159.421 135.372 162.739 132.624C170.886 125.876 187.403 123.536 189.789 127.677C211.217 130.646 211.541 147.173 211.541 147.173C210.619 153.96 203.275 153.303 196.893 152.291C196.914 157.002 194.809 161.644 190.124 163.255C181.165 166.336 177.989 171.352 181.787 175.538C185.584 179.725 192.038 190.451 181.58 191.694C171.121 192.937 169.265 197.695 171.986 200.094C174.708 202.493 165.648 195.604 165.648 195.604C165.648 195.604 162.783 205.221 154.18 201.706C153.409 201.391 152.68 200.732 151.997 199.796C149.291 202.059 146.968 203.311 145.351 203.127C136.094 202.072 138.383 192.308 138.383 192.308C138.383 192.308 127.047 193.978 130.616 193.189C134.186 192.399 134.935 187.359 126.428 181.263C117.92 175.167 128.894 168.9 134.292 167.066Z" fill="#2F2E41"/>
<path id="Vector_47" d="M244.743 206.243L244.598 206.207L244.8 207.571C244.921 209.454 245.198 211.326 245.631 213.168L251.566 253.165C251.756 254.442 252.326 255.64 253.208 256.613C254.089 257.586 255.243 258.292 256.528 258.643L277.664 264.423C279.031 264.797 280.481 264.752 281.813 264.295C283.145 263.838 284.294 262.991 285.102 261.871L309.948 227.419C310.709 226.473 311.419 225.489 312.074 224.472L312.917 223.302L312.811 223.275C315.569 218.581 317.163 213.326 317.469 207.918C317.775 202.511 316.784 197.099 314.574 192.103C312.364 187.107 308.994 182.662 304.728 179.115C300.461 175.568 295.413 173.015 289.977 171.655C284.541 170.295 278.863 170.164 273.387 171.273C267.911 172.382 262.784 174.701 258.406 178.048C254.028 181.396 250.517 185.682 248.147 190.573C245.777 195.463 244.612 200.826 244.743 206.243L244.743 206.243Z" fill="#3F3D56"/>
<path id="Vector_48" d="M278.683 267.111C278.304 267.066 277.929 266.993 277.561 266.892L255.468 260.851C254.065 260.467 252.805 259.697 251.842 258.634C250.88 257.572 250.257 256.263 250.05 254.869L243.846 213.061C243.393 211.127 243.101 209.162 242.975 207.185L242.907 205.38C242.831 199.631 244.138 193.955 246.725 188.8C249.313 183.644 253.109 179.15 257.815 175.673C262.521 172.195 268.008 169.83 273.842 168.762C279.677 167.695 285.699 167.956 291.434 169.523L291.264 170.118C285.592 168.57 279.634 168.323 273.867 169.395C268.1 170.467 262.683 172.829 258.049 176.293C253.414 179.757 249.69 184.227 247.173 189.346C244.657 194.465 243.417 200.091 243.554 205.777L243.61 207.127C243.736 209.087 244.025 211.036 244.474 212.954L250.683 254.786C250.872 256.061 251.441 257.258 252.322 258.229C253.202 259.201 254.354 259.906 255.637 260.256L277.731 266.298C279.096 266.669 280.542 266.624 281.872 266.168C283.202 265.711 284.35 264.867 285.157 263.75L285.683 264.106C284.911 265.174 283.853 266.017 282.62 266.546C281.388 267.075 280.027 267.271 278.683 267.111V267.111Z" fill="#D0CDE1"/>
<path id="Vector_49" d="M290.017 220.569L272.029 255.028L272.768 255.393L290.756 220.934L290.017 220.569Z" fill="#D0CDE1"/>
<path id="Vector_50" d="M268.067 214.566L267.243 214.503L264.414 253.109L265.238 253.172L268.067 214.566Z" fill="#D0CDE1"/>
<path id="Vector_51" d="M274.594 285.243L246.284 277.502C246.074 277.443 245.895 277.306 245.788 277.121C245.68 276.937 245.652 276.719 245.71 276.516C245.768 276.312 245.907 276.14 246.097 276.037C246.286 275.933 246.511 275.907 246.722 275.963L275.032 283.704C275.137 283.733 275.236 283.781 275.322 283.846C275.409 283.911 275.481 283.991 275.535 284.083C275.59 284.175 275.625 284.276 275.638 284.381C275.652 284.485 275.644 284.592 275.615 284.693C275.586 284.794 275.537 284.889 275.47 284.972C275.403 285.054 275.32 285.123 275.225 285.174C275.13 285.225 275.025 285.258 274.917 285.269C274.809 285.281 274.699 285.272 274.594 285.243V285.243Z" fill="#3F3D56"/>
<path id="Vector_52" d="M276.038 279.42L247.728 271.678C247.622 271.65 247.524 271.602 247.437 271.537C247.351 271.472 247.279 271.392 247.224 271.3C247.17 271.208 247.135 271.107 247.122 271.002C247.108 270.897 247.116 270.791 247.145 270.69C247.173 270.589 247.223 270.494 247.29 270.411C247.357 270.329 247.44 270.26 247.535 270.209C247.63 270.158 247.735 270.125 247.843 270.114C247.951 270.102 248.061 270.111 248.166 270.14L276.476 277.881C276.581 277.91 276.68 277.957 276.766 278.022C276.852 278.087 276.925 278.168 276.979 278.26C277.033 278.352 277.068 278.453 277.082 278.558C277.095 278.662 277.088 278.768 277.059 278.87C277.03 278.971 276.981 279.066 276.914 279.148C276.846 279.231 276.763 279.3 276.668 279.351C276.573 279.402 276.469 279.434 276.361 279.446C276.252 279.458 276.143 279.449 276.038 279.42V279.42Z" fill="#3F3D56"/>
<path id="Vector_53" d="M277.481 273.597L249.171 265.855C248.961 265.797 248.782 265.66 248.675 265.475C248.567 265.29 248.539 265.073 248.597 264.869C248.655 264.666 248.794 264.494 248.984 264.391C249.173 264.287 249.398 264.261 249.609 264.317L277.919 272.058C278.13 272.117 278.308 272.254 278.415 272.438C278.523 272.623 278.551 272.841 278.493 273.044C278.435 273.247 278.296 273.42 278.107 273.523C277.917 273.627 277.692 273.653 277.481 273.597L277.481 273.597Z" fill="#3F3D56"/>
<path id="Vector_54" d="M258.877 286.858C264.492 288.394 269.904 286.62 270.964 282.897L250.629 277.336C249.569 281.06 253.261 285.323 258.877 286.858Z" fill="#3F3D56"/>
<path id="Vector_55" d="M278.369 211.469C277.161 211.139 276.255 210.079 275.772 209.383C275.614 209.155 275.461 208.92 275.308 208.684C274.752 207.826 274.226 207.015 273.418 206.529C271.634 205.455 269.271 206.377 267.196 207.421L266.809 206.711C269.09 205.563 271.711 204.563 273.851 205.851C274.823 206.436 275.426 207.365 276.008 208.264C276.156 208.492 276.304 208.721 276.458 208.942C276.96 209.665 277.99 210.863 279.259 210.766C279.799 210.681 280.314 210.491 280.774 210.206C281.121 210.014 281.483 209.849 281.857 209.711C282.612 209.465 283.428 209.441 284.201 209.642C284.974 209.843 285.67 210.26 286.202 210.84C286.39 211.059 286.566 211.287 286.728 211.524C287.05 211.975 287.353 212.4 287.79 212.594C288.437 212.881 289.191 212.595 289.99 212.293C290.813 211.982 291.665 211.659 292.562 211.87C292.591 211.877 292.62 211.885 292.649 211.893C294.239 212.327 294.779 214.145 295.047 215.485L294.235 215.63C293.87 213.809 293.276 212.853 292.372 212.647C291.729 212.496 291.033 212.759 290.297 213.038C289.373 213.388 288.417 213.749 287.451 213.32C286.804 213.034 286.42 212.495 286.048 211.974C285.903 211.761 285.746 211.556 285.578 211.36C285.153 210.904 284.602 210.577 283.991 210.419C283.38 210.26 282.736 210.276 282.137 210.466C281.804 210.59 281.48 210.738 281.171 210.911C280.613 211.251 279.986 211.474 279.331 211.563C279.008 211.588 278.682 211.556 278.369 211.469Z" fill="#D0CDE1"/>
</g>
</g>
<defs>
<clipPath id="clip0_0_1">
<rect width="685" height="417" fill="white"/>
</clipPath>
<clipPath id="clip1_0_1">
<rect width="324" height="261" fill="white" transform="translate(112.885 90) rotate(6.79589)"/>
</clipPath>
</defs>
</svg>
