<svg width="1206" height="580" viewBox="0 0 1206 580" fill="none" xmlns="http://www.w3.org/2000/svg">
<g id="Skills" clip-path="url(#clip0_1_2)">
<path id="Vector" d="M526.389 6.77105L429.294 325.454L1037.97 485.21L1135.06 166.527L526.389 6.77105Z" fill="#3F3D56"/>
<path id="Vector_2" d="M536.904 24.7789C539.688 24.7789 541.945 22.6841 541.945 20.1C541.945 17.516 539.688 15.4212 536.904 15.4212C534.12 15.4212 531.863 17.516 531.863 20.1C531.863 22.6841 534.12 24.7789 536.904 24.7789Z" fill="#39FF14"/>
<path id="Vector_3" d="M552.427 28.8531C555.211 28.8531 557.468 26.7583 557.468 24.1742C557.468 21.5902 555.211 19.4954 552.427 19.4954C549.643 19.4954 547.386 21.5902 547.386 24.1742C547.386 26.7583 549.643 28.8531 552.427 28.8531Z" fill="#39FF14"/>
<path id="Vector_4" d="M567.949 32.9272C570.733 32.9272 572.99 30.8324 572.99 28.2484C572.99 25.6643 570.733 23.5695 567.949 23.5695C565.165 23.5695 562.908 25.6643 562.908 28.2484C562.908 30.8324 565.165 32.9272 567.949 32.9272Z" fill="#39FF14"/>
<path id="Vector_5" d="M849.42 208.987C841.272 207.557 832.89 207.741 824.824 209.526C827.172 202.04 827.765 194.174 826.562 186.458C818.256 189.249 810.738 193.751 804.576 199.627C802.642 191.626 798.778 184.137 793.276 177.722C787.898 183.711 783.965 190.7 781.742 198.218C775.877 192.777 768.841 188.547 761.092 185.804C761.092 185.804 757.421 203.133 766.259 217.353C774.126 230.009 789.24 235.932 792.471 237.082L792.547 237.167L792.587 237.124C792.915 237.239 793.099 237.298 793.099 237.298C793.099 237.298 793.168 236.965 793.264 236.371C793.322 236.305 793.381 236.237 793.445 236.162C793.457 236.257 793.469 236.343 793.481 236.428C793.228 236.981 793.099 237.298 793.099 237.298C793.099 237.298 793.288 237.337 793.633 237.398L793.643 237.455L793.755 237.42C797.157 238.01 813.375 240.311 827.217 233.352C842.77 225.535 849.42 208.987 849.42 208.987Z" fill="#39FF14"/>
<path id="ball" d="M819.255 164.72C826.493 164.72 832.361 159.274 832.361 152.555C832.361 145.837 826.493 140.39 819.255 140.39C812.016 140.39 806.148 145.837 806.148 152.555C806.148 159.274 812.016 164.72 819.255 164.72Z" fill="#39FF14"/>
<path id="Vector_6" d="M983.826 310.5L589.937 207.118L587.514 215.072L981.402 318.454L983.826 310.5Z" fill="#39FF14"/>
<path id="one" d="M682.644 274.239L614.733 256.414L595.528 319.446L663.44 337.271L682.644 274.239Z" fill="#39FF14"/>
<path id="two" d="M808.766 307.341L740.854 289.517L721.65 352.549L789.562 370.373L808.766 307.341Z" fill="#39FF14"/>
<path id="three" d="M934.888 340.444L866.976 322.619L847.772 385.651L915.684 403.476L934.888 340.444Z" fill="#39FF14"/>
<path id="Vector_7" d="M650.867 347.585L600.419 334.344L598.773 339.747L649.221 352.988L650.867 347.585Z" fill="#39FF14"/>
<path id="Vector_8" d="M776.989 380.688L726.541 367.447L724.895 372.849L775.343 386.091L776.989 380.688Z" fill="#39FF14"/>
<path id="Vector_9" d="M903.111 413.79L852.662 400.549L851.016 405.952L901.465 419.193L903.111 413.79Z" fill="#39FF14"/>
<path id="Vector_10" d="M266.118 323.08C397.344 323.08 503.724 317.896 503.724 311.502C503.724 305.108 397.344 299.924 266.118 299.924C134.892 299.924 28.5127 305.108 28.5127 311.502C28.5127 317.896 134.892 323.08 266.118 323.08Z" fill="#D0CDE1"/>
<path id="Vector_11" d="M825.646 539.156C970.65 539.156 1088.2 533.972 1088.2 527.578C1088.2 521.184 970.65 516 825.646 516C680.641 516 563.092 521.184 563.092 527.578C563.092 533.972 680.641 539.156 825.646 539.156Z" fill="#D0CDE1"/>
<path id="css" d="M730.379 475H782.79V492.391H752.297V509.781H782.793V527.171H730.379V475ZM793.274 475H845.687V490.122H815.192V493.146H845.687V527.928H793.275V512.048H823.77V509.023H793.273V475H793.274ZM856.17 475H908.583V490.122H878.089V493.146H908.583V527.928H856.17V512.048H886.665V509.023H856.172V475H856.17Z" fill="#3F3D56"/>
<g id="html" filter="url(#filter0_d_1_2)">
<path d="M153.256 262.433H169.935V278.455H185.192V262.433H201.872V310.951H185.193V294.704H169.936V310.951H153.257V262.433H153.256ZM223.805 278.523H209.123V262.433H255.177V278.523H240.487V310.951H223.808V278.523H223.805ZM262.486 262.433H279.877L290.575 279.481L301.262 262.433H318.661V310.951H302.05V286.903L290.575 304.153H290.287L278.805 286.903V310.951H262.486V262.433ZM326.961 262.433H343.645V294.914H367.101V310.951H326.96V262.433H326.961Z" fill="#3F3D56"/>
</g>
<path id="Vector_12" d="M97.4587 403.674L94.8949 430.653L115.412 429.065V406.055L97.4587 403.674Z" fill="#B06C49"/>
<path id="Vector_13" d="M78.651 403.674L81.216 430.653L60.6987 429.065V406.055L78.651 403.674Z" fill="#B06C49"/>
<path id="Vector_14" d="M132.51 196.578C132.51 196.578 139.349 234.665 139.349 240.219C139.349 245.773 136.785 281.48 132.51 288.621C128.236 295.762 127.381 298.936 129.091 302.11C130.8 305.284 129.945 304.49 129.091 306.871C128.236 309.251 126.526 308.458 129.091 311.632C130.138 313.029 130.699 314.69 130.699 316.392C130.699 318.095 130.138 319.756 129.091 321.153C127.381 323.534 132.51 387.805 125.671 392.566C118.832 397.327 117.122 413.196 117.122 413.196L94.8944 410.816V393.36C94.8944 393.36 89.765 380.664 93.1846 372.729C96.6042 364.794 98.314 322.74 98.314 322.74C98.314 322.74 97.4591 318.773 98.314 316.393C99.1689 314.012 98.314 312.425 96.6042 311.632C94.8944 310.838 94.0395 307.664 94.0395 307.664L91.4748 249.741L81.2159 306.871C81.2159 306.871 91.4748 384.631 81.2159 394.946V413.196H58.9884L62.408 393.36C62.408 393.36 55.5688 375.11 58.9884 371.142C62.408 367.175 48.7296 303.697 50.4394 301.316C52.1492 298.936 51.2943 298.143 50.4394 296.556C49.5845 294.969 47.0198 293.382 47.8747 291.795C48.7296 290.208 47.8747 287.034 47.8747 287.034C47.8747 287.034 31.6315 212.447 39.3256 205.306C47.0198 198.165 132.51 196.578 132.51 196.578Z" fill="#2F2E41"/>
<path id="Vector_15" d="M100.024 420.338C100.024 420.338 101.734 412.728 115.412 415.343C115.412 415.343 118.832 421.925 118.832 425.099C118.832 428.273 122.251 449.696 122.251 449.696C122.251 449.696 135.93 471.12 118.832 471.12C101.734 471.12 95.7493 465.566 94.8944 460.011C94.0395 454.457 95.7493 452.87 92.3297 450.49C88.9101 448.109 87.2003 448.109 88.0552 444.936C88.9101 441.762 90.6199 425.892 90.6199 425.892C90.6199 425.892 91.4748 413.99 96.1768 417.164L100.879 420.338" fill="#2F2E41"/>
<path id="Vector_16" d="M76.0865 420.338C76.0865 420.338 74.3767 412.728 60.6982 415.343C60.6982 415.343 57.2786 421.925 57.2786 425.099C57.2786 428.273 53.859 449.696 53.859 449.696C53.859 449.696 40.1805 471.12 57.2786 471.12C74.3767 471.12 80.361 465.566 81.2159 460.011C82.0708 454.457 80.361 452.87 83.7806 450.49C87.2003 448.109 88.9101 448.109 88.0552 444.936C87.2003 441.762 85.4904 425.892 85.4904 425.892C85.4904 425.892 84.6355 413.99 79.9336 417.164L75.2316 420.338" fill="#2F2E41"/>
<path id="Vector_17" d="M82.0709 32.3284C82.0709 32.3284 72.6669 66.4478 70.9571 67.2413C69.2473 68.0348 110.283 71.2087 110.283 71.2087C110.283 71.2087 100.024 41.8501 110.283 37.0892L82.0709 32.3284Z" fill="#B06C49"/>
<path id="Vector_18" d="M76.0651 53.1206L76.064 53.1162L47.8747 71.2087L53.0041 213.241C53.0041 213.241 90.6199 209.273 99.1689 210.067C107.718 210.86 135.075 202.926 135.075 202.926L123.092 69.464C122.858 66.8562 121.626 64.4121 119.62 62.5735C117.614 60.7349 114.965 59.6231 112.153 59.439L107.018 59.103C107.018 59.103 101.889 70.8897 86.4571 64.8089C83.8553 63.7584 81.5577 62.152 79.7517 60.1208C77.9458 58.0896 76.6826 55.691 76.0651 53.1206V53.1206Z" fill="#D0CDE1"/>
<path id="Vector_19" d="M76.7468 51.8251L41.8903 67.2413L35.0511 158.491C35.0511 158.491 21.3726 213.241 32.4864 229.11C43.6001 244.98 62.408 246.567 62.408 246.567C62.408 246.567 87.2003 155.317 80.361 124.372C73.5218 93.426 76.7468 51.8251 76.7468 51.8251Z" fill="#575A89"/>
<path id="Vector_20" d="M11.1138 189.436V201.339C11.1138 201.339 5.98434 227.523 22.2275 226.73C38.4707 225.936 30.7766 198.165 30.7766 198.165L25.6471 189.436H11.1138Z" fill="#B06C49"/>
<path id="Vector_21" d="M161.577 213.241L159.867 226.73C159.867 226.73 168.416 253.708 152.173 254.501C135.93 255.295 147.72 226.895 147.72 226.895L153.028 211.654L161.577 213.241Z" fill="#B06C49"/>
<path id="Vector_22" d="M106.504 56.3299C122.081 59.8911 136.516 66.8556 148.606 76.6433L148.753 76.763L136.785 135.48L135.075 156.904C135.075 156.904 166.706 261.643 129.945 246.567C129.945 246.567 98.314 155.317 102.589 113.263C106.863 71.2087 106.504 56.3299 106.504 56.3299Z" fill="#575A89"/>
<path id="Vector_23" d="M137.64 75.9695C138.495 75.176 148.753 77.0722 148.753 77.0722C148.753 77.0722 167.561 138.654 167.561 148.969C167.561 159.284 170.126 218.002 170.126 218.002L147.559 220.113L129.293 138.531L137.64 75.9695Z" fill="#575A89"/>
<path id="Vector_24" d="M47.8747 67.2413H41.8903C41.8903 67.2413 24.7922 73.5891 23.9373 80.7304C23.0824 87.8717 0 160.078 0 160.078L5.98433 196.578L28.2119 193.404L32.4864 152.937L54.7139 108.502L47.8747 67.2413Z" fill="#575A89"/>
<g id="head">
<path id="Vector_25" d="M100.879 49.5783C113.627 49.5783 123.961 39.9865 123.961 28.1545C123.961 16.3224 113.627 6.73065 100.879 6.73065C88.1307 6.73065 77.7964 16.3224 77.7964 28.1545C77.7964 39.9865 88.1307 49.5783 100.879 49.5783Z" fill="#B06C49"/>
<path id="Vector_26" d="M96.3945 34.1337L97.2795 28.4077C97.4857 27.073 98.3273 25.3182 99.7263 25.6812C100.916 25.9899 103.509 26.9353 103.943 26.6499C105.568 25.5812 108.028 27.45 109.737 26.5006C110.453 26.1028 110.921 25.2506 111.753 25.1937C112.311 25.2268 112.838 25.4481 113.233 25.8159C114.342 26.7115 115.65 27.3707 117.063 27.7472C117.772 27.9264 118.52 27.9263 119.229 27.7469C119.938 27.5676 120.582 27.2154 121.095 26.727C121.277 26.4669 121.521 26.2496 121.808 26.0926C122.146 26.0023 122.506 26.0176 122.834 26.1364L127.201 27.24C127.843 25.0785 127.975 22.8137 127.588 20.6005C127.2 18.3873 126.303 16.2778 124.956 14.4162C123.184 12.1841 121.036 10.2318 118.595 8.63426C115.89 6.72454 113.099 4.92829 110.221 3.24554C107.171 1.24204 103.707 -0.156328 100.048 -0.8623C96.3655 -1.38138 92.2417 -0.452699 89.9251 2.25492C88.8354 1.52296 88.0164 0.496061 87.5804 -0.684961C87.3206 -0.46562 87.1159 -0.196021 86.9807 0.104784C86.8455 0.405588 86.783 0.730268 86.7978 1.05592C86.8126 1.38157 86.9041 1.70024 87.0661 1.98943C87.2281 2.27863 87.4565 2.53132 87.7352 2.72963L84.0416 0.540458C83.0033 1.55234 85.0319 3.38719 84.1472 4.51787C83.8797 4.79752 83.5363 5.00559 83.1529 5.12047C81.1473 5.84597 79.3092 6.91976 77.737 8.28428C75.7465 10.3891 74.2891 12.8809 73.4718 15.5768C71.2708 21.4374 69.6711 28.1584 72.7983 33.6443C73.1528 34.2662 77.8324 44.5314 78.4559 44.9317C80.5634 46.2849 79.1915 43.0101 80.7017 44.9317C81.8859 46.4386 81.6642 40.6713 83.4242 41.9372C84.1142 42.3954 84.9325 42.6581 85.7801 42.6935C86.6277 42.7289 87.4681 42.5354 88.1997 42.1365C88.9293 41.6669 88.6942 39.0588 88.3005 36.6637C88.2252 36.2075 88.2716 35.7411 88.4357 35.3054C88.5998 34.8698 88.8764 34.4781 89.2415 34.1647C89.6066 33.8514 90.0489 33.626 90.5297 33.5082C91.0105 33.3904 91.5151 33.3839 91.9992 33.4892C94.1913 33.9678 96.3569 34.3768 96.3945 34.1337Z" fill="#2F2E41"/>
</g>
<path id="Vector_27" opacity="0.2" d="M139.777 147.779L149.181 219.985H143.197L139.777 147.779Z" fill="black"/>
<path id="Vector_28" opacity="0.2" d="M40.608 120.007L35.8535 147.779L44.8825 120.007H42.3175H40.608Z" fill="black"/>
<g id="Group 1">
<g id="Group" opacity="0.5">
<path id="Vector_29" opacity="0.5" d="M401.003 336.907C398.948 337.407 396.431 338.71 395.191 342.274C392.761 349.259 398.407 354.009 396.547 361.291C396.03 363.223 395.048 365.04 393.662 366.627C391.391 369.265 388.925 370.512 386.531 372.359C383.494 374.718 381.318 377.779 380.264 381.173C379.11 384.918 379.013 388.846 379.983 392.63C380.834 395.792 382.283 398.096 383.552 400.659C385.13 403.929 386.364 407.312 387.237 410.77C387.717 412.454 387.988 414.176 388.045 415.909C388.009 418.21 387.768 420.506 387.324 422.777L383.87 443.418C383.345 446.117 383.029 448.843 382.925 451.577C382.97 454.318 383.34 457.047 384.028 459.724C385.24 465.184 386.545 470.841 389.321 473.732C392.098 476.622 396.828 475.585 399.734 469.736C402.496 464.14 402.561 456.673 404.998 450.694C408.842 441.275 416.478 440.009 420.719 431.022C424.786 422.375 423.538 411.826 425.601 401.993C427.043 394.946 430.223 388.523 432.091 381.562C434.773 371.538 434.506 361.13 432.365 353.422C430.736 347.089 427.212 341.227 422.139 336.413C420.344 334.714 418.418 333.201 416.161 333.046C413.76 332.886 411.661 335.474 409.289 336.252C406.549 337.172 403.794 336.227 401.003 336.907Z" fill="#39FF14"/>
<path id="Vector_30" opacity="0.5" d="M414.005 333.572C414.005 333.572 409.938 422.721 392.833 475.288" stroke="#535461" stroke-width="2" stroke-miterlimit="10"/>
<path id="Vector_31" opacity="0.5" d="M395.09 342.694C395.09 342.694 413.37 356.949 409.902 384.076" stroke="#535461" stroke-width="2" stroke-miterlimit="10"/>
<path id="Vector_32" opacity="0.5" d="M379.752 383.26C379.752 383.26 409.758 388.43 407.529 403.803" stroke="#535461" stroke-width="2" stroke-miterlimit="10"/>
<path id="Vector_33" opacity="0.5" d="M432.415 353.237C432.415 353.237 420.272 362.341 409.455 388.127" stroke="#535461" stroke-width="2" stroke-miterlimit="10"/>
<path id="Vector_34" opacity="0.5" d="M420.553 431.17C420.553 431.17 412.267 436.729 405.618 417.267" stroke="#535461" stroke-width="2" stroke-miterlimit="10"/>
<path id="Vector_35" opacity="0.5" d="M384.8 442.541C384.8 442.541 401.696 440.651 403.253 431.59" stroke="#535461" stroke-width="2" stroke-miterlimit="10"/>
</g>
<path id="Vector_36" d="M441.847 277.113C437.665 277.645 432.631 279.306 430.562 284.426C426.502 294.469 438.84 302.072 435.999 312.566C435.151 315.454 433.366 318.077 430.85 320.132C426.524 323.782 421.577 325.375 416.889 327.852C412.202 330.329 407.335 334.226 405.135 340.205C403.022 345.955 403.938 352.304 406.138 357.048C408.337 361.791 411.661 365.33 414.632 369.234C418.243 374.038 421.261 379.151 423.639 384.489C424.838 386.923 425.644 389.485 426.033 392.105C426.415 395.317 425.932 398.769 425.449 402.148L421.158 432.251C420.589 436.254 420.012 440.318 420.336 444.172C420.704 448.613 422.24 452.491 423.754 456.277C427.014 464.443 430.504 472.954 436.655 477.45C442.806 481.946 452.455 480.983 457.654 472.62C462.601 464.659 461.692 453.671 465.911 445.117C472.559 431.634 488.193 430.54 495.714 417.743C502.926 405.464 498.895 389.758 501.793 375.491C503.87 365.269 509.495 356.128 512.379 346.066C516.54 331.57 514.543 316.222 509.048 304.685C503.553 293.147 494.863 284.92 485.539 278.602C481.588 275.915 477.398 273.488 472.704 273.043C467.714 272.568 463.726 276.162 458.93 277.07C453.349 278.065 447.522 276.391 441.847 277.113Z" fill="#39FF14"/>
<path id="Vector_37" d="M468.298 273.519C468.298 273.519 472.235 404.39 444.097 480.069" stroke="#535461" stroke-width="2" stroke-miterlimit="10"/>
<path id="Vector_38" d="M430.403 285.056C430.403 285.056 470.209 307.909 466.798 347.536" stroke="#535461" stroke-width="2" stroke-miterlimit="10"/>
<path id="Vector_39" d="M404.277 343.219C404.277 343.219 467.101 353.879 464.62 376.287" stroke="#535461" stroke-width="2" stroke-miterlimit="10"/>
<path id="Vector_40" d="M509.12 304.351C509.12 304.351 485.244 316.525 466.437 353.398" stroke="#535461" stroke-width="2" stroke-miterlimit="10"/>
<path id="Vector_41" d="M495.339 417.916C495.339 417.916 478.97 425.328 462.507 395.922" stroke="#535461" stroke-width="2" stroke-miterlimit="10"/>
<path id="Vector_42" d="M422.918 431.016C422.918 431.016 457.625 429.948 459.601 416.761" stroke="#535461" stroke-width="2" stroke-miterlimit="10"/>
<path id="Vector_43" opacity="0.1" d="M342.398 569.595C512.722 569.595 650.797 558.236 650.797 544.223C650.797 530.21 512.722 518.85 342.398 518.85C172.075 518.85 34 530.21 34 544.223C34 558.236 172.075 569.595 342.398 569.595Z" fill="#39FF14"/>
<g id="push">
<path id="Vector_44" d="M261.18 536.311L258.764 539.319C258.764 539.319 261.396 542.327 261.648 542.703C261.901 543.08 269.328 542.518 269.328 542.518L269.984 540.264L268.888 537.633L261.18 536.311Z" fill="#E6E6F0"/>
<path id="Vector_45" d="M179.96 534.618L175.129 535.366L178.201 540.449L181.496 541.95L184.568 543.827L185.448 541.764L183.249 537.812L179.96 534.618Z" fill="#FDC2CC"/>
<path id="Vector_46" d="M258.987 485.732C258.987 485.732 284.673 490.995 289.498 496.85C289.498 496.85 293.889 500.049 289.498 505.874C285.106 511.698 278.962 524.866 278.962 524.866C278.962 524.866 274.571 537.651 272.818 538.59C271.066 539.529 260.963 540.282 260.083 536.737C260.083 536.737 265.787 529.029 265.787 525.453C265.787 521.877 275.227 504.959 275.227 504.959C275.227 504.959 253.716 502.89 246.909 504.206C240.101 505.522 249.988 483.663 258.987 485.732Z" fill="#565171"/>
<path id="Vector_47" opacity="0.1" d="M258.987 485.732C258.987 485.732 284.673 490.995 289.498 496.85C289.498 496.85 293.889 500.049 289.498 505.874C285.106 511.698 278.962 524.866 278.962 524.866C278.962 524.866 274.571 537.651 272.818 538.59C271.066 539.529 260.963 540.282 260.083 536.737C260.083 536.737 265.787 529.029 265.787 525.453C265.787 521.877 275.227 504.959 275.227 504.959C275.227 504.959 253.716 502.89 246.909 504.206C240.101 505.522 249.988 483.663 258.987 485.732Z" fill="black"/>
<path id="Vector_48" d="M253.716 490.809C253.666 491.903 253.529 493.132 253.334 494.453C251.928 504.027 247.349 518.263 247.349 518.263C247.349 518.263 242.741 526.725 241.421 532.179C240.101 537.632 231.102 538.973 231.102 538.973C231.102 538.973 206.512 541.443 201.464 540.48C196.416 539.516 188.484 543.302 184.561 542.734C180.638 542.166 178.194 534.273 178.194 534.273C185.002 534.307 191.74 533.089 197.952 530.703C208.048 526.756 222.542 528.634 222.542 528.634C223.623 528.365 224.629 527.909 225.497 527.295C226.365 526.681 227.077 525.922 227.59 525.064C229.126 522.241 229.126 505.132 228.686 504.002C225.802 496.591 226.04 491.835 226.869 489.062C227.147 487.85 227.771 486.717 228.686 485.763L253.716 490.809Z" fill="#565171"/>
<path id="Vector_49" opacity="0.1" d="M253.716 490.809C253.665 491.903 253.528 493.132 253.334 494.454C251.127 494.602 244.94 494.744 240.354 492.317C236.027 490.044 229.732 489.272 226.898 489.031C227.175 487.819 227.8 486.686 228.715 485.733L253.716 490.809Z" fill="black"/>
<path id="Vector_50" d="M256.752 488.456C255.728 490.927 254.156 493.823 254.156 493.823C254.156 493.823 246.036 494.762 240.325 491.754C234.614 488.747 225.398 488.37 225.398 488.37C226.891 487.585 227.9 485.201 228.527 483.114C228.878 481.933 229.152 480.737 229.35 479.531C229.35 479.531 256.348 484.232 257.473 484.985C257.891 485.282 257.444 486.776 256.752 488.456Z" fill="#E6E6F0"/>
<path id="Vector_51" d="M304.865 409.207L272.119 426.137L268.867 427.817V419.546L271.124 418.62L298.721 407.323C298.721 407.323 300.04 386.83 303.552 390.03C307.064 393.229 304.865 409.207 304.865 409.207Z" fill="#FDC2CC"/>
<path id="Vector_52" opacity="0.1" d="M272.119 426.137L268.867 427.817V419.547L271.124 418.62C271.273 421.141 271.605 423.651 272.119 426.137Z" fill="black"/>
<path id="Vector_53" d="M246.916 429.163L270.403 417.508C270.403 417.508 270.842 428.793 273.475 430.479C273.475 430.479 263.819 432.949 260.083 438.187L246.916 429.163Z" fill="#B45181"/>
<path id="Vector_54" opacity="0.1" d="M246.916 429.163L270.403 417.508C270.403 417.508 270.842 428.793 273.475 430.479C273.475 430.479 263.819 432.949 260.083 438.187L246.916 429.163Z" fill="black"/>
<path id="Vector_55" d="M304.655 439.101C304.655 439.101 293.485 443.27 286.087 444.802C284.422 445.232 282.681 445.403 280.945 445.308C275.897 444.555 282.265 439.132 282.265 439.132L284.919 438.78L299.168 436.877C299.168 436.877 300.704 418.077 303.336 419.584C305.968 421.091 304.655 439.101 304.655 439.101Z" fill="#FDC2CC"/>
<path id="Vector_56" d="M257.451 422.178C257.451 422.178 248.012 428.193 251.524 435.716C255.036 443.239 233.301 431.201 233.301 431.201C233.301 431.201 240.325 422.178 241.861 415.408C243.397 408.639 257.451 422.178 257.451 422.178Z" fill="#FDC2CC"/>
<path id="Vector_57" opacity="0.1" d="M256.752 488.456C252.669 487.139 248.402 486.288 244.06 485.924C237.714 485.306 231.902 484.262 228.535 483.114C228.885 481.933 229.159 480.737 229.357 479.531C229.357 479.531 256.355 484.232 257.48 484.985C257.891 485.282 257.444 486.776 256.752 488.456Z" fill="black"/>
<path id="Vector_58" opacity="0.1" d="M286.08 444.802C284.415 445.232 282.673 445.403 280.938 445.308C275.89 444.555 282.258 439.132 282.258 439.132L284.911 438.78C286.022 440.244 287.154 442.529 286.08 444.802Z" fill="black"/>
<path id="Vector_59" d="M242.084 425.562C242.084 425.562 233.525 425.377 230.453 428.385C227.381 431.393 228.037 439.502 228.037 439.502C228.037 439.502 227.395 455.74 232.205 464.825C232.364 465.119 232.382 465.454 232.256 465.758C232.205 465.869 232.205 465.801 232.205 465.801C232.205 465.801 229.133 477.648 226.061 479.717C222.989 481.786 232.645 484.232 244.089 485.356C255.533 486.48 260.112 489.302 260.112 489.302C260.112 489.302 262.088 487.449 262.276 483.287C262.463 479.124 259.225 448.878 259.225 448.878C259.225 448.878 271.297 451.509 278.544 448.316C278.544 448.316 281.839 449.823 284.911 445.685C287.983 441.547 282.748 437.038 282.748 437.038C282.748 437.038 277.917 441.176 264.525 435.722C251.134 430.269 246.245 425.377 242.084 425.562Z" fill="#B45181"/>
<path id="Vector_60" d="M176.449 534.995H173.817V538.195L176.449 543.272C176.449 543.272 179.961 543.834 180.184 543.834C180.408 543.834 183.256 543.272 183.256 543.272L184.136 541.956C184.136 541.956 174.473 538.75 176.449 534.995Z" fill="#E6E6F0"/>
<path id="Vector_61" d="M258.987 538.003L255.036 545.526L271.722 552.32L284.897 552.697C284.897 552.697 285.993 550.066 281.601 548.75L278.09 548.188C278.09 548.188 273.482 541.042 273.042 537.688C273.042 537.688 268.65 538.442 267.994 541.258C267.987 541.196 261.843 543.827 258.987 538.003Z" fill="#B45181"/>
<path id="Vector_62" d="M174.473 534.242L173.132 535.18L167.233 539.319L180.84 554.76C180.84 554.76 188.52 557.582 192.039 554.76C192.039 554.76 194.203 552.907 189.407 551.375C189.407 551.375 185.672 551.937 185.672 548.744C185.672 545.551 186.551 542.166 187.835 541.412C187.835 541.412 184.54 540.474 183.667 541.227C182.996 541.861 182.406 542.554 181.908 543.296C181.908 543.296 174.033 540.634 174.473 534.242Z" fill="#B45181"/>
<path id="Vector_63" opacity="0.1" d="M241.428 415.785C241.205 416.739 240.911 417.68 240.549 418.602C241.689 420.951 243.853 422.827 246.583 423.832C249.312 424.836 252.391 424.89 255.165 423.981C255.744 423.47 256.364 422.993 257.019 422.554C257.019 422.554 242.964 409.016 241.428 415.785Z" fill="black"/>
<path id="Vector_64" opacity="0.1" d="M240.217 440.898C240.217 440.898 247.024 448.606 256.903 448.798Z" fill="black"/>
<g id="Group_2" opacity="0.1">
<path id="Vector_65" opacity="0.1" d="M280.901 448.445C280.762 448.412 280.627 448.369 280.498 448.316C280.286 448.411 280.07 448.499 279.849 448.581C280.205 448.575 280.559 448.53 280.901 448.445Z" fill="black"/>
<path id="Vector_66" opacity="0.1" d="M283.238 437.81C282.999 437.547 282.744 437.296 282.474 437.057C282.474 437.057 281.032 438.292 277.469 438.526C279.432 438.693 281.412 438.447 283.238 437.81V437.81Z" fill="black"/>
<path id="Vector_67" opacity="0.1" d="M261.18 448.878L261.223 449.28C264.119 449.739 267.061 449.946 270.006 449.897C267.032 449.804 264.076 449.463 261.18 448.878V448.878Z" fill="black"/>
<path id="Vector_68" opacity="0.1" d="M246.036 485.368C234.621 484.238 224.965 481.798 228.008 479.729C231.051 477.66 234.152 465.814 234.152 465.814C234.152 465.814 234.152 465.882 234.203 465.77C234.329 465.466 234.311 465.131 234.152 464.838C229.342 455.728 229.984 439.515 229.984 439.515C229.984 439.515 229.328 431.43 232.4 428.397C234.686 426.155 240.015 425.692 242.589 425.599C242.349 425.583 242.108 425.583 241.868 425.599C241.868 425.599 233.308 425.414 230.237 428.422C227.165 431.43 227.821 439.539 227.821 439.539C227.821 439.539 227.179 455.777 231.989 464.862C232.147 465.156 232.166 465.491 232.039 465.795C231.989 465.906 231.989 465.838 231.989 465.838C231.989 465.838 228.939 477.648 225.838 479.717C222.737 481.786 232.422 484.232 243.866 485.356C255.31 486.48 259.889 489.302 259.889 489.302C260.118 489.066 260.321 488.812 260.494 488.543C258.266 487.622 253.68 486.109 246.036 485.368Z" fill="black"/>
</g>
<path id="Vector_69" d="M251.524 424.247C257.828 424.247 262.939 419.869 262.939 414.47C262.939 409.07 257.828 404.692 251.524 404.692C245.219 404.692 240.109 409.07 240.109 414.47C240.109 419.869 245.219 424.247 251.524 424.247Z" fill="#FDC2CC"/>
<path id="Vector_70" opacity="0.1" d="M267.771 410.097C266.826 412.123 264.006 412.888 261.533 413.413C257.999 414.155 254.192 414.883 250.81 413.735C250.372 413.524 249.866 413.439 249.368 413.494C248.966 413.632 248.63 413.882 248.416 414.204C244.688 418.75 245.293 424.809 244.327 430.306C244.024 432.017 243.512 433.783 242.164 435.062C239.539 437.532 234.585 437.439 232.169 440.064C230.576 441.794 230.561 444.196 230.576 446.401C230.576 448.752 230.551 451.106 230.503 453.461C230.46 455.005 230.374 456.605 229.559 457.976C228.174 460.298 225.088 461.404 222.239 462.299C220.465 462.868 218.634 463.442 216.73 463.288C214.826 463.133 212.923 462.052 212.677 460.422C212.339 458.211 214.999 456.666 216.831 455.073C219.759 452.534 220.963 448.841 221.071 445.271C221.174 443.829 220.929 442.385 220.35 441.028C219.679 439.626 218.482 438.446 217.761 437.063C215.54 432.801 218.281 427.872 221.562 424.142C224.843 420.411 228.874 416.773 229.573 412.147C229.634 411.146 229.801 410.152 230.071 409.176C230.576 407.83 231.773 404.112 233.092 403.259C235.205 401.896 237.685 401.013 240.303 400.69C242.33 400.437 244.399 400.53 246.411 400.196C248.762 399.807 250.947 398.85 253.298 398.491C258.382 397.719 263.898 402.778 266.126 406.768C266.739 407.991 268.347 408.855 267.771 410.097Z" fill="black"/>
<path id="Vector_71" d="M267.771 409.72C266.826 411.746 264.006 412.512 261.533 413.037C257.999 413.778 254.192 414.507 250.81 413.358C250.372 413.147 249.866 413.063 249.368 413.117C248.966 413.255 248.63 413.505 248.416 413.827C244.688 418.373 245.293 424.432 244.327 429.929C244.024 431.64 243.512 433.406 242.164 434.685C239.539 437.155 234.585 437.063 232.169 439.688C230.576 441.417 230.561 443.82 230.576 446.025C230.576 448.376 230.551 450.729 230.503 453.084C230.46 454.628 230.374 456.228 229.559 457.599C228.174 459.921 225.088 461.027 222.239 461.923C220.465 462.491 218.634 463.065 216.73 462.911C214.826 462.756 212.923 461.676 212.677 460.045C212.339 457.834 214.999 456.29 216.831 454.696C219.759 452.158 220.963 448.464 221.071 444.894C221.174 443.453 220.929 442.008 220.35 440.651C219.679 439.249 218.482 438.069 217.761 436.686C215.54 432.424 218.281 427.496 221.562 423.765C224.843 420.034 228.874 416.397 229.573 411.77C229.634 410.769 229.801 409.775 230.071 408.8C230.576 407.453 231.773 403.735 233.092 402.883C235.205 401.52 237.685 400.636 240.303 400.313C242.33 400.06 244.399 400.153 246.411 399.819C248.762 399.43 250.947 398.473 253.298 398.115C258.382 397.342 263.898 402.401 266.126 406.391C266.739 407.614 268.347 408.478 267.771 409.72Z" fill="#F569BC"/>
<path id="Vector_72" d="M304.655 390.925H494.431V553.456H304.655V390.925Z" fill="#F7DF1E"/>
<path id="Vector_73" d="M354.564 526.75L369.087 519.221C371.892 523.476 374.438 527.077 380.553 527.077C386.415 527.077 390.107 525.113 390.107 517.479V465.542H407.94V517.689C407.94 533.507 397.124 540.708 381.317 540.708C367.053 540.708 358.775 534.378 354.571 526.744L354.564 526.75ZM417.625 525.107L432.141 517.905C435.963 523.254 440.931 527.17 449.722 527.17C457.113 527.17 461.822 524.007 461.822 519.641C461.822 514.403 456.983 512.55 448.842 509.493L444.386 507.856C431.521 503.168 422.983 497.276 422.983 484.837C422.983 473.38 433.172 464.653 449.094 464.653C460.43 464.653 468.564 468.037 474.442 476.869L460.56 484.51C457.503 479.816 454.193 477.963 449.094 477.963C443.874 477.963 440.556 480.798 440.556 484.51C440.556 489.092 443.866 490.945 451.51 493.774L455.967 495.411C471.11 500.97 479.662 506.646 479.662 519.412C479.662 533.161 467.05 540.69 450.097 540.69C433.511 540.69 422.839 533.896 417.647 525.088" fill="black"/>
</g>
<path id="Vector_74" opacity="0.1" d="M568.013 516.089L565.432 516.238V510.895L568.821 510.37C567.638 511.71 567.682 514.082 568.013 516.089Z" fill="black"/>
<path id="Vector_75" opacity="0.1" d="M528.46 535.137L524.278 535.891L526.52 530.548L528.085 530.215C528.432 531.838 528.558 533.489 528.46 535.137Z" fill="black"/>
<path id="Vector_76" opacity="0.1" d="M187.431 579.866C184.107 579.459 177.379 576.031 173.925 574.172C172.605 573.462 171.761 572.986 171.761 572.986C171.761 572.986 168.3 564.753 159.077 571.01C156.077 573.097 152.688 574.738 149.054 575.864C147.665 576.285 146.233 576.593 144.777 576.784L145.628 563.765L156.395 558.169L164.875 563.728L169.843 562.103L186.393 572.961C187.103 575.212 187.453 577.535 187.431 579.866V579.866Z" fill="black"/>
<g id="Group_3" opacity="0.05">
<path id="Vector_77" opacity="0.05" d="M155.428 569.663C150.243 573.184 145.657 574.604 142.643 575.222C142.643 575.469 142.701 575.71 142.744 575.945C142.744 575.945 150.049 576.272 159.272 570.021C160.701 568.973 162.39 568.216 164.211 567.81C162.2 566.964 159.329 567.02 155.428 569.663Z" fill="black"/>
<path id="Vector_78" opacity="0.05" d="M207.594 507.937C206.216 504.472 204.219 500.08 202.64 499.043C202.543 498.975 202.436 498.919 202.322 498.876C202.322 498.876 199.142 498.968 199.25 499.043C200.83 500.074 202.373 504.144 203.75 507.603C204.866 510.415 205.154 513.419 204.587 516.349C203.216 523.414 200.26 537.966 196.943 550.56C192.328 568.008 187.33 564.055 185.03 568.335C183.141 571.843 184.085 576.451 184.496 578.001C185.739 578.534 187.102 578.831 188.491 578.872C188.491 578.872 186.566 572.949 188.874 568.669C191.181 564.388 196.178 568.341 200.786 550.893C204.125 538.269 207.06 523.717 208.43 516.682C208.997 513.753 208.71 510.748 207.594 507.937V507.937Z" fill="black"/>
</g>
<path id="Vector_79" d="M252.267 569.435C253.588 568.512 254.551 567.267 255.028 565.865C255.389 564.444 254.682 562.746 253.096 562.227C251.322 561.646 249.425 562.696 247.99 563.765C246.555 564.833 244.904 566.044 243.022 565.815C243.989 565.064 244.713 564.111 245.122 563.049C245.532 561.988 245.613 560.853 245.358 559.756C245.277 559.302 245.053 558.875 244.709 558.521C243.721 557.619 241.94 558.008 240.758 558.719C237.008 560.979 235.962 565.34 235.941 569.268C235.566 567.853 235.883 566.377 235.868 564.944C235.854 563.511 235.393 561.856 233.965 561.103C233.079 560.695 232.085 560.493 231.08 560.516C229.393 560.46 227.518 560.609 226.364 561.665C224.922 562.974 225.304 565.179 226.552 566.606C227.799 568.033 229.688 568.953 231.434 569.953C232.832 570.666 234.025 571.639 234.924 572.801C235.029 572.962 235.116 573.131 235.183 573.307H245.748C248.115 572.274 250.308 570.971 252.267 569.435V569.435Z" fill="#39FF14"/>
</g>
<g id="Group 2">
<path id="Vector_80" d="M410.892 103.625L412.382 103.155C412.524 103.11 412.665 103.061 412.814 103.014C410.057 102.196 407.728 100.646 406.209 98.6201C404.69 96.5937 404.072 94.2112 404.456 91.8642C404.841 89.5172 406.205 87.3455 408.324 85.7061C410.443 84.0667 413.192 83.0573 416.117 82.8437L415.08 87.06L419.019 82.8925H419.054C422.454 83.2692 425.529 84.7189 427.604 86.9226C429.678 89.1264 430.581 91.9038 430.114 94.6441C430.082 94.841 430.03 95.0326 429.985 95.226C431.198 94.4542 432.335 93.6022 433.187 92.6126C434.916 90.602 435.502 88.1245 436.099 85.0912C437.282 79.0839 438.347 73.0104 439.307 66.9403C436.36 66.2236 433.826 64.6832 432.161 62.5959C430.497 60.5086 429.811 58.0113 430.227 55.5529C430.281 55.2358 430.357 54.9274 430.443 54.6225C430.465 54.5458 430.486 54.4692 430.51 54.3943C430.603 54.0998 430.707 53.8106 430.828 53.5231C430.847 53.4761 430.873 53.4325 430.893 53.3872C431.001 53.1485 431.109 52.9133 431.25 52.6903C431.297 52.6032 431.345 52.5161 431.394 52.4342C431.544 52.1851 431.701 51.9412 431.874 51.7042C431.933 51.6258 431.995 51.5509 432.054 51.4725C432.188 51.2983 432.328 51.124 432.473 50.962C432.551 50.8749 432.627 50.7878 432.707 50.7024L432.765 50.6345C434.601 48.6982 437.221 47.3416 440.169 46.8005C443.117 46.2594 446.207 46.568 448.902 47.6726L447.553 53.159L451.445 49.0403C453.538 50.4694 455.01 52.4004 455.645 54.5512C456.279 56.7021 456.044 58.9602 454.973 60.9957H454.989C454.952 61.0654 454.906 61.1316 454.87 61.2013C454.798 61.3302 454.725 61.4574 454.653 61.5846C454.554 61.7466 454.437 61.9052 454.34 62.062C454.258 62.1804 454.178 62.2989 454.089 62.4104C453.962 62.5847 453.823 62.7415 453.685 62.9035C453.603 62.9976 453.527 63.0951 453.443 63.1875C453.227 63.4297 452.984 63.6614 452.738 63.8844C452.651 63.9628 452.558 64.0342 452.468 64.1109C452.293 64.2607 452.117 64.4088 451.931 64.5499C451.817 64.637 451.696 64.7242 451.577 64.8043C451.406 64.9263 451.231 65.0447 451.052 65.1528C450.924 65.2346 450.794 65.313 450.665 65.3897C450.476 65.4995 450.286 65.6023 450.094 65.7051C449.964 65.773 449.834 65.8409 449.702 65.9054C449.486 66.0117 449.259 66.1093 449.032 66.2051C448.918 66.2521 448.816 66.3044 448.688 66.3497C448.347 66.4838 447.997 66.6075 447.64 66.7173C447.573 66.7382 447.501 66.7539 447.434 66.7731C447.136 66.8602 446.836 66.9473 446.531 67.0083C446.399 67.0379 446.265 67.0623 446.131 67.0884C445.882 67.1372 445.631 67.1825 445.378 67.2208C445.234 67.2417 445.085 67.2609 444.931 67.2783C444.682 67.3079 444.431 67.3306 444.178 67.348C444.029 67.3585 443.882 67.3689 443.731 67.3759C443.458 67.3863 443.184 67.3881 442.909 67.3863C442.891 67.3855 442.873 67.3855 442.855 67.3863C442.449 69.9417 442.022 72.497 441.575 75.0523C442.624 73.9116 443.95 72.9556 445.474 72.2428C446.997 71.53 448.685 71.0755 450.434 70.9071C452.183 70.7388 453.957 70.8601 455.645 71.2637C457.334 71.6673 458.903 72.3447 460.255 73.2543L456.865 77.8852L462.316 74.9948C464.376 77.1928 465.271 79.9599 464.802 82.6887C464.642 83.6468 464.314 84.5818 463.829 85.4658C462.789 87.38 461.058 88.998 458.863 90.1098C456.667 91.2217 454.107 91.776 451.515 91.7008C448.924 91.6257 446.42 90.9246 444.329 89.6885C442.238 88.4524 440.657 86.7384 439.79 84.7689C439.74 85.0268 439.692 85.2916 439.643 85.546C439.115 88.2204 438.46 91.5498 436.134 94.2573C434.557 96.0971 432.387 97.4561 430.277 98.6513C428.904 99.4295 427.501 100.171 426.065 100.876C424.558 102.002 422.74 102.823 420.762 103.27C418.455 104.221 416.099 105.081 413.694 105.85L412.191 106.324C410.84 106.749 409.456 107.185 408.083 107.648C408.3 107.664 408.516 107.678 408.732 107.701C411.452 108.002 413.984 108.992 415.96 110.528C417.937 112.064 419.256 114.067 419.728 116.246L410.581 120.273L419.7 119.944C419.335 121.573 418.488 123.108 417.231 124.418C415.169 126.569 412.146 127.986 408.807 128.368C405.467 128.75 402.074 128.067 399.351 126.463L399.805 127.144C400.108 127.594 400.406 128.042 400.696 128.486C404.659 134.538 404.946 139.765 401.507 143.206L398.696 141.386C402.045 138.037 399.388 132.714 397.507 129.84C397.221 129.404 396.927 128.968 396.642 128.522C394.097 124.719 391.211 120.409 392.368 115.821C394.097 108.905 403.405 105.978 410.892 103.625Z" fill="#F2F2F2"/>
<path id="Vector_81" d="M303.206 136.418L302.043 136.051C301.93 136.016 301.826 135.976 301.71 135.941C303.862 135.301 305.68 134.091 306.865 132.508C308.051 130.926 308.533 129.065 308.233 127.233C307.932 125.4 306.868 123.704 305.213 122.424C303.558 121.144 301.413 120.355 299.128 120.187L299.939 123.48L296.864 120.226H296.836C295.521 120.371 294.253 120.723 293.106 121.263C291.959 121.802 290.956 122.519 290.153 123.371C289.35 124.223 288.763 125.195 288.426 126.23C288.089 127.265 288.008 128.344 288.188 129.404C288.214 129.559 288.255 129.707 288.29 129.859C287.336 129.281 286.494 128.592 285.791 127.815C284.444 126.247 283.981 124.31 283.514 121.942C282.599 117.25 281.769 112.508 281.023 107.772C283.325 107.211 285.302 106.008 286.601 104.378C287.899 102.747 288.434 100.797 288.108 98.8778C288.065 98.6304 288.007 98.3899 287.937 98.1512L287.886 97.977C287.812 97.747 287.732 97.5205 287.637 97.301C287.622 97.2644 287.602 97.2296 287.585 97.1947C287.501 97.0083 287.408 96.8254 287.308 96.6459C287.269 96.5797 287.233 96.5118 287.194 96.4456C287.077 96.2522 286.954 96.0623 286.82 95.8776C286.774 95.8149 286.725 95.7556 286.679 95.7034C286.573 95.5675 286.463 95.4333 286.351 95.3044C286.29 95.2364 286.232 95.1667 286.169 95.1005L286.124 95.0483C284.69 93.5363 282.645 92.4765 280.343 92.0526C278.041 91.6287 275.627 91.8675 273.521 92.7276L274.576 97.0135L271.534 93.7973C269.9 94.9135 268.75 96.4215 268.255 98.1012C267.759 99.7809 267.942 101.544 268.778 103.134H268.767C268.795 103.188 268.83 103.24 268.86 103.294C268.916 103.395 268.972 103.495 269.033 103.594C269.111 103.72 269.193 103.843 269.279 103.965C269.342 104.059 269.405 104.152 269.474 104.242C269.573 104.373 269.69 104.5 269.789 104.627C269.854 104.7 269.913 104.777 269.98 104.849C270.153 105.037 270.336 105.218 270.529 105.394C270.596 105.455 270.669 105.511 270.745 105.568C270.881 105.685 271.02 105.8 271.165 105.917C271.253 105.986 271.348 106.051 271.441 106.115C271.575 106.212 271.711 106.304 271.85 106.392C271.949 106.455 272.051 106.516 272.153 106.577C272.3 106.662 272.449 106.751 272.598 106.822C272.7 106.876 272.801 106.929 272.905 106.979C273.076 107.063 273.251 107.138 273.428 107.213C273.519 107.251 273.605 107.291 273.696 107.328C273.964 107.432 274.237 107.528 274.516 107.613C274.568 107.631 274.624 107.641 274.676 107.657C274.907 107.725 275.143 107.788 275.383 107.842C275.484 107.864 275.599 107.884 275.694 107.903C275.889 107.941 276.083 107.978 276.282 108.007L276.63 108.053C276.825 108.075 277.021 108.093 277.218 108.107C277.335 108.115 277.45 108.122 277.568 108.127C277.785 108.136 278.001 108.138 278.217 108.136H278.258C278.575 110.136 278.908 112.135 279.257 114.131C278.44 113.239 277.405 112.491 276.215 111.933C275.026 111.375 273.708 111.018 272.342 110.886C270.976 110.753 269.59 110.846 268.271 111.161C266.951 111.475 265.725 112.003 264.668 112.713L267.292 116.309L263.037 114.053C262.239 114.902 261.657 115.87 261.323 116.901C260.989 117.933 260.91 119.006 261.092 120.062C261.217 120.811 261.474 121.542 261.855 122.233C262.668 123.728 264.019 124.991 265.734 125.859C267.449 126.728 269.448 127.161 271.472 127.102C273.495 127.043 275.451 126.496 277.084 125.531C278.717 124.566 279.952 123.227 280.63 121.689C280.669 121.89 280.706 122.093 280.744 122.296C281.155 124.386 281.668 126.986 283.484 129.104C284.716 130.54 286.411 131.601 288.059 132.535C289.131 133.143 290.227 133.724 291.347 134.277C292.524 135.156 293.944 135.798 295.489 136.148C297.288 136.891 299.13 137.567 301.011 138.162L302.183 138.533C303.238 138.865 304.319 139.204 305.385 139.567C305.216 139.579 305.046 139.589 304.875 139.608C302.751 139.843 300.775 140.615 299.232 141.814C297.688 143.012 296.657 144.575 296.287 146.276L303.422 149.412L296.3 149.156C296.614 150.51 297.348 151.778 298.434 152.841C299.52 153.904 300.923 154.728 302.511 155.236C304.1 155.744 305.822 155.92 307.517 155.746C309.213 155.573 310.826 155.056 312.206 154.243C312.087 154.418 311.971 154.592 311.852 154.775C311.616 155.123 311.382 155.472 311.155 155.82C308.062 160.547 307.837 164.631 310.524 167.319L312.714 165.898C310.098 163.284 312.174 159.125 313.644 156.88C313.86 156.54 314.096 156.197 314.327 155.852C316.314 152.89 318.567 149.515 317.67 145.931C316.327 140.541 309.052 138.262 303.206 136.418Z" fill="#F2F2F2"/>
<path id="Vector_82" d="M364.694 173.384C430.844 173.384 484.47 171.551 484.47 169.29C484.47 167.028 430.844 165.195 364.694 165.195C298.543 165.195 244.917 167.028 244.917 169.29C244.917 171.551 298.543 173.384 364.694 173.384Z" fill="#3F3D56"/>
<path id="Vector_83" opacity="0.1" d="M364.694 173.384C430.844 173.384 484.47 171.551 484.47 169.29C484.47 167.028 430.844 165.195 364.694 165.195C298.543 165.195 244.917 167.028 244.917 169.29C244.917 171.551 298.543 173.384 364.694 173.384Z" fill="black"/>
<path id="Vector_84" d="M364.694 171.119C430.844 171.119 484.47 169.286 484.47 167.025C484.47 164.763 430.844 162.93 364.694 162.93C298.543 162.93 244.917 164.763 244.917 167.025C244.917 169.286 298.543 171.119 364.694 171.119Z" fill="#3F3D56"/>
<path id="Vector_85" d="M263.295 165.568C262.646 164.608 263.381 163.432 264.22 162.575C265.059 161.718 266.082 160.833 266.06 159.737C266.03 158.169 263.963 157.244 262.313 156.413C261.089 155.795 259.96 155.064 258.949 154.233C258.526 153.913 258.177 153.535 257.916 153.118C257.574 152.505 257.585 151.808 257.606 151.135C257.678 148.898 257.815 146.663 258.017 144.431" stroke="#3F3D56" stroke-width="4" stroke-miterlimit="10"/>
<path id="Vector_86" d="M254.887 144.307C254.91 143.898 255.061 143.5 255.325 143.15C255.59 142.8 255.959 142.51 256.4 142.305L257.079 143.387L257.059 142.077C257.383 142 257.721 141.967 258.058 141.98C258.656 142.003 259.231 142.169 259.712 142.456C260.192 142.742 260.557 143.138 260.759 143.591C260.961 144.045 260.992 144.536 260.848 145.004C260.704 145.472 260.391 145.895 259.948 146.219C259.506 146.544 258.955 146.756 258.363 146.828C257.772 146.9 257.167 146.829 256.626 146.625C256.084 146.42 255.63 146.091 255.32 145.678C255.011 145.266 254.86 144.789 254.887 144.307V144.307Z" fill="#39FF14"/>
<path id="Vector_87" d="M260.298 160.859C260.6 161.342 261.092 161.732 261.698 161.965C262.304 162.198 262.989 162.262 263.646 162.147C264.302 162.032 264.892 161.745 265.323 161.33C265.755 160.915 266.002 160.396 266.027 159.855C266.049 159.517 265.982 159.18 265.831 158.864C265.613 158.397 265.223 157.995 264.714 157.712C264.204 157.429 263.599 157.279 262.98 157.282C262.361 157.285 261.758 157.44 261.252 157.728C260.746 158.016 260.362 158.421 260.151 158.89L262.047 160.132L259.963 159.742C259.962 160.131 260.077 160.514 260.298 160.859V160.859Z" fill="#39FF14"/>
<path id="Vector_88" d="M261.796 156.111C262.553 156.157 263.303 155.973 263.898 155.595C264.494 155.217 264.891 154.672 265.013 154.069C265.134 153.466 264.97 152.848 264.553 152.337C264.136 151.827 263.496 151.462 262.761 151.313L262.776 152.322L262.088 151.226C261.284 151.196 260.498 151.424 259.903 151.861C259.307 152.298 258.952 152.907 258.914 153.555C258.877 154.203 259.16 154.837 259.702 155.317C260.245 155.796 261.001 156.083 261.805 156.113L261.796 156.111Z" fill="#39FF14"/>
<path id="Vector_89" d="M254.43 152.162C254.828 152.177 255.225 152.128 255.6 152.02C255.974 151.911 256.318 151.744 256.612 151.528C256.907 151.313 257.146 151.052 257.315 150.762C257.484 150.472 257.581 150.158 257.6 149.837C257.619 149.517 257.559 149.197 257.424 148.895C257.289 148.593 257.082 148.316 256.814 148.079C256.546 147.842 256.223 147.649 255.863 147.513C255.503 147.376 255.113 147.298 254.716 147.283C254.148 147.26 253.585 147.368 253.09 147.593L253.626 148.778L252.521 147.924C251.93 148.36 251.578 148.968 251.542 149.613C251.527 149.838 251.554 150.064 251.62 150.283C251.771 150.8 252.127 151.263 252.634 151.602C253.141 151.941 253.772 152.138 254.43 152.162V152.162Z" fill="#39FF14"/>
<path id="Vector_90" opacity="0.1" d="M255.295 144.959C255.996 145.022 256.677 145.198 257.379 145.233C258.082 145.267 258.854 145.131 259.299 144.692C259.539 144.454 259.658 144.154 259.859 143.896C260.052 143.655 260.315 143.456 260.625 143.316C260.808 143.624 260.908 143.96 260.92 144.302C260.931 144.644 260.854 144.984 260.692 145.3C260.53 145.616 260.287 145.901 259.98 146.136C259.672 146.372 259.307 146.553 258.907 146.667C258.507 146.782 258.082 146.827 257.659 146.8C257.236 146.774 256.825 146.676 256.452 146.513C256.079 146.35 255.753 146.126 255.494 145.855C255.236 145.584 255.051 145.272 254.951 144.94C255.066 144.943 255.181 144.95 255.295 144.959Z" fill="black"/>
<path id="Vector_91" opacity="0.1" d="M254.43 152.161C254.954 152.183 255.475 152.094 255.943 151.905C256.411 151.715 256.81 151.431 257.101 151.08C257.392 150.728 257.565 150.322 257.603 149.901C257.641 149.48 257.542 149.058 257.317 148.677C257.076 148.808 256.869 148.975 256.707 149.17C256.491 149.433 256.359 149.736 256.106 149.978C255.632 150.426 254.826 150.573 254.093 150.545C253.36 150.517 252.653 150.351 251.931 150.297C251.829 150.297 251.728 150.283 251.626 150.282C251.776 150.798 252.131 151.261 252.637 151.6C253.143 151.939 253.773 152.136 254.43 152.161V152.161Z" fill="black"/>
<path id="Vector_92" opacity="0.1" d="M261.796 156.111C262.315 156.133 262.832 156.046 263.297 155.86C263.762 155.674 264.16 155.395 264.453 155.049C264.745 154.703 264.922 154.303 264.967 153.886C265.012 153.469 264.923 153.05 264.709 152.668C264.457 152.801 264.237 152.969 264.06 153.165C263.824 153.433 263.677 153.742 263.411 153.989C262.901 154.449 262.041 154.611 261.265 154.595C260.488 154.58 259.79 154.433 259.042 154.388C259.225 154.869 259.587 155.293 260.08 155.601C260.574 155.91 261.173 156.088 261.796 156.111V156.111Z" fill="black"/>
<path id="Vector_93" opacity="0.1" d="M260.298 160.859C260.6 161.343 261.092 161.732 261.698 161.965C262.304 162.198 262.989 162.262 263.646 162.147C264.302 162.032 264.892 161.745 265.323 161.33C265.755 160.915 266.002 160.396 266.027 159.855C266.049 159.517 265.982 159.18 265.831 158.864C265.581 158.996 265.356 159.157 265.165 159.341C264.875 159.625 264.687 159.946 264.352 160.213C263.731 160.704 262.73 160.909 261.84 160.925C261.325 160.927 260.81 160.905 260.298 160.859V160.859Z" fill="black"/>
<path id="Vector_94" d="M267.876 164.464C267.876 164.464 265.481 164.404 264.761 163.99C264.041 163.575 261.085 163.08 260.897 163.746C260.709 164.411 257.297 167.056 260.002 167.067C262.707 167.077 266.285 166.718 267.005 166.37C267.725 166.021 267.876 164.464 267.876 164.464Z" fill="#656380"/>
<path id="Vector_95" opacity="0.2" d="M259.952 166.835C262.657 166.852 266.235 166.486 266.957 166.138C267.504 165.87 267.723 164.903 267.796 164.457H267.876C267.876 164.457 267.725 166.012 267.011 166.373C266.298 166.734 262.711 167.084 260.008 167.07C259.228 167.07 258.958 166.842 258.973 166.509C259.074 166.706 259.373 166.835 259.952 166.835Z" fill="black"/>
<path id="Vector_96" d="M473.011 167.136C472.363 166.176 473.098 165 473.937 164.143C474.775 163.286 475.798 162.401 475.776 161.305C475.746 159.737 473.679 158.812 472.03 157.981C470.806 157.363 469.676 156.632 468.666 155.801C468.243 155.481 467.893 155.103 467.632 154.686C467.29 154.073 467.301 153.376 467.323 152.703C467.394 150.466 467.53 148.232 467.734 145.999" stroke="#3F3D56" stroke-width="4" stroke-miterlimit="10"/>
<path id="Vector_97" d="M464.603 145.875C464.626 145.466 464.777 145.068 465.042 144.718C465.306 144.368 465.676 144.078 466.116 143.874L466.795 144.955L466.776 143.645C467.1 143.568 467.437 143.535 467.775 143.548C468.372 143.572 468.947 143.738 469.427 144.025C469.908 144.312 470.272 144.707 470.474 145.16C470.676 145.614 470.706 146.106 470.562 146.573C470.417 147.041 470.104 147.463 469.662 147.788C469.22 148.112 468.668 148.324 468.077 148.396C467.486 148.468 466.881 148.397 466.34 148.192C465.798 147.988 465.344 147.658 465.035 147.246C464.725 146.834 464.574 146.357 464.601 145.875H464.603Z" fill="#39FF14"/>
<path id="Vector_98" d="M470.015 162.427C470.316 162.911 470.809 163.3 471.415 163.533C472.021 163.766 472.706 163.83 473.362 163.715C474.018 163.6 474.609 163.313 475.04 162.898C475.471 162.483 475.719 161.964 475.744 161.423C475.766 161.085 475.698 160.748 475.547 160.432C475.33 159.965 474.94 159.563 474.43 159.28C473.92 158.997 473.315 158.847 472.696 158.85C472.077 158.853 471.474 159.009 470.968 159.296C470.463 159.584 470.078 159.989 469.868 160.458L471.764 161.7L469.679 161.31C469.678 161.699 469.793 162.082 470.015 162.427V162.427Z" fill="#39FF14"/>
<path id="Vector_99" d="M471.513 157.679C472.269 157.725 473.019 157.541 473.615 157.163C474.21 156.785 474.608 156.24 474.729 155.637C474.85 155.034 474.686 154.416 474.269 153.906C473.852 153.395 473.213 153.03 472.477 152.881L472.492 153.89L471.805 152.794C471.001 152.764 470.214 152.992 469.619 153.429C469.024 153.866 468.668 154.475 468.631 155.123C468.593 155.771 468.877 156.405 469.419 156.885C469.961 157.364 470.717 157.651 471.522 157.681L471.513 157.679Z" fill="#39FF14"/>
<path id="Vector_100" d="M464.147 153.73C464.95 153.76 465.735 153.532 466.329 153.096C466.923 152.661 467.279 152.052 467.316 151.405C467.354 150.758 467.072 150.126 466.531 149.647C465.99 149.168 465.235 148.882 464.432 148.851C463.865 148.828 463.301 148.936 462.806 149.161L463.343 150.346L462.238 149.492C461.647 149.928 461.295 150.536 461.258 151.181C461.244 151.406 461.27 151.632 461.336 151.851C461.487 152.368 461.843 152.831 462.351 153.17C462.858 153.509 463.489 153.706 464.147 153.73V153.73Z" fill="#39FF14"/>
<path id="Vector_101" opacity="0.1" d="M465.012 146.527C465.712 146.59 466.393 146.766 467.096 146.801C467.798 146.835 468.57 146.699 469.016 146.26C469.256 146.022 469.375 145.722 469.576 145.464C469.768 145.223 470.031 145.024 470.341 144.884C470.524 145.192 470.625 145.528 470.636 145.87C470.648 146.212 470.57 146.552 470.408 146.868C470.246 147.184 470.004 147.469 469.696 147.704C469.389 147.94 469.023 148.121 468.624 148.235C468.224 148.35 467.799 148.395 467.376 148.368C466.953 148.342 466.542 148.244 466.169 148.081C465.796 147.918 465.469 147.694 465.211 147.423C464.952 147.152 464.767 146.84 464.668 146.508C464.782 146.511 464.897 146.518 465.012 146.527Z" fill="black"/>
<path id="Vector_102" opacity="0.1" d="M464.147 153.73C464.67 153.751 465.191 153.662 465.66 153.473C466.128 153.283 466.527 152.999 466.818 152.648C467.109 152.296 467.281 151.89 467.319 151.469C467.357 151.048 467.258 150.626 467.033 150.245C466.792 150.376 466.585 150.544 466.424 150.738C466.207 151.001 466.075 151.304 465.822 151.546C465.349 151.994 464.543 152.141 463.81 152.113C463.077 152.085 462.37 151.919 461.648 151.865C461.546 151.865 461.444 151.851 461.343 151.85C461.493 152.366 461.848 152.829 462.354 153.168C462.86 153.507 463.489 153.705 464.147 153.73V153.73Z" fill="black"/>
<path id="Vector_103" opacity="0.1" d="M471.513 157.679C472.031 157.701 472.548 157.614 473.013 157.428C473.479 157.242 473.877 156.963 474.169 156.617C474.462 156.271 474.639 155.871 474.684 155.454C474.728 155.037 474.639 154.618 474.425 154.237C474.173 154.369 473.953 154.537 473.777 154.733C473.541 155.001 473.394 155.31 473.128 155.557C472.618 156.017 471.757 156.179 470.981 156.164C470.205 156.148 469.506 156.001 468.758 155.956C468.941 156.437 469.304 156.861 469.797 157.169C470.29 157.478 470.889 157.656 471.513 157.679V157.679Z" fill="black"/>
<path id="Vector_104" opacity="0.1" d="M470.015 162.427C470.316 162.911 470.809 163.3 471.415 163.533C472.021 163.766 472.706 163.83 473.362 163.715C474.018 163.6 474.609 163.313 475.04 162.898C475.471 162.483 475.719 161.964 475.744 161.423C475.765 161.085 475.698 160.748 475.547 160.432C475.297 160.564 475.073 160.725 474.881 160.909C474.592 161.193 474.403 161.514 474.068 161.781C473.448 162.272 472.447 162.477 471.556 162.493C471.041 162.495 470.526 162.473 470.015 162.427V162.427Z" fill="black"/>
<path id="Vector_105" d="M477.592 166.032C477.592 166.032 475.197 165.972 474.477 165.558C473.757 165.143 470.802 164.648 470.613 165.314C470.425 165.979 467.014 168.624 469.718 168.635C472.423 168.645 476.001 168.286 476.721 167.938C477.441 167.589 477.592 166.032 477.592 166.032Z" fill="#656380"/>
<path id="Vector_106" opacity="0.2" d="M469.669 168.403C472.373 168.42 475.952 168.054 476.674 167.706C477.221 167.438 477.439 166.471 477.513 166.025H477.592C477.592 166.025 477.441 167.581 476.728 167.941C476.014 168.302 472.427 168.652 469.725 168.638C468.944 168.638 468.674 168.41 468.689 168.077C468.791 168.274 469.089 168.403 469.669 168.403Z" fill="black"/>
<g id="gandr">
<path id="Vector_107" d="M406.112 103.688C404.682 103.293 403.24 102.927 401.788 102.591C402.027 101.802 402.25 101.009 402.456 100.212C405.729 87.405 403.589 77.0873 396.279 73.6916C389.269 70.4336 377.806 73.831 366.227 81.9482C365.085 82.7519 363.97 83.5766 362.882 84.4222C362.151 83.8589 361.409 83.3066 360.655 82.7653C348.524 74.0836 336.371 70.4266 329.059 73.8327C322.056 77.0995 319.979 86.7987 322.93 98.937C323.218 100.139 323.549 101.334 323.922 102.523C322.203 102.916 320.541 103.336 318.95 103.784C304.726 107.772 295.641 114.044 295.641 120.541C295.641 127.251 305.394 133.981 320.21 138.061C321.412 138.39 322.623 138.696 323.842 138.978C323.447 140.255 323.096 141.544 322.787 142.842C319.977 154.77 322.173 164.241 329.157 167.486C336.371 170.842 348.479 167.392 360.266 159.089C361.198 158.432 362.132 157.735 363.077 157.007C364.256 157.923 365.466 158.813 366.707 159.676C378.126 167.594 389.408 170.793 396.383 167.537C403.589 164.176 405.93 154.001 402.89 141.624C402.66 140.679 402.391 139.714 402.084 138.73C402.936 138.528 403.769 138.319 404.583 138.101C419.985 133.99 430.009 127.341 430.009 120.541C430.009 114.02 420.63 107.715 406.118 103.688H406.112Z" fill="#53C1DE"/>
<path id="Vector_108" d="M402.771 133.711C402.036 133.908 401.284 134.096 400.514 134.281C398.636 129.589 396.363 125.006 393.71 120.564C396.262 116.181 398.447 111.665 400.25 107.047C401.623 107.368 402.959 107.706 404.244 108.063C416.677 111.511 424.262 116.611 424.262 120.541C424.262 124.723 416.07 130.16 402.771 133.711ZM397.254 142.523C398.599 147.996 398.789 152.944 397.902 156.81C397.102 160.286 395.494 162.603 393.505 163.531C389.269 165.505 380.215 162.939 370.449 156.167C369.329 155.39 368.203 154.562 367.07 153.684C371.141 150.052 374.904 146.202 378.332 142.161C384.455 141.743 390.535 140.986 396.529 139.896C396.803 140.788 397.046 141.659 397.258 142.509L397.254 142.523ZM341.448 163.193C337.309 164.371 334.015 164.404 332.023 163.479C327.786 161.509 326.024 153.897 328.428 143.705C328.716 142.5 329.043 141.302 329.407 140.11C335.377 141.143 341.426 141.849 347.514 142.224C351.042 146.25 354.896 150.086 359.049 153.705C358.214 154.357 357.361 154.99 356.489 155.606C351.276 159.279 346.051 161.878 341.448 163.193V163.193ZM322.067 133.685C315.514 131.88 310.105 129.535 306.395 126.977C303.063 124.677 301.381 122.393 301.381 120.541C301.381 116.598 308.676 111.568 320.839 108.152C322.367 107.723 323.908 107.332 325.464 106.979C327.27 111.648 329.458 116.216 332.012 120.653C329.426 125.153 327.212 129.786 325.384 134.521C324.268 134.264 323.163 133.986 322.067 133.685ZM328.564 98.0484C326.039 87.6489 327.714 79.8034 331.935 77.8382C336.43 75.7474 346.368 78.7302 356.846 86.2272C357.516 86.7063 358.188 87.2081 358.861 87.7255C354.737 91.3226 350.914 95.1361 347.417 99.1408C341.386 99.5766 335.397 100.327 329.487 101.387C329.143 100.281 328.835 99.1687 328.564 98.0502V98.0484ZM386.53 109.58C385.217 107.752 383.856 105.947 382.446 104.166C386.733 104.603 390.839 105.181 394.696 105.892C393.458 109.056 392.023 112.168 390.396 115.215C389.155 113.316 387.866 111.438 386.53 109.58ZM362.886 91.0306C365.68 93.4854 368.319 96.0521 370.793 98.7209C365.502 98.52 360.208 98.52 354.913 98.7209C357.522 95.9473 360.197 93.3687 362.886 91.0323V91.0306ZM339.104 109.612C337.785 111.455 336.52 113.322 335.31 115.211C333.638 112.018 332.209 108.877 331.042 105.843C334.875 105.146 338.963 104.587 343.223 104.157C341.793 105.95 340.418 107.769 339.1 109.612H339.104ZM343.344 137.253C339.186 136.889 335.055 136.354 330.966 135.648C332.153 132.563 333.615 129.353 335.323 126.09C336.538 127.982 337.807 129.85 339.13 131.693C340.476 133.574 341.879 135.427 343.339 137.253H343.344ZM363.048 150.377C360.324 148.018 357.611 145.405 354.965 142.581C357.537 142.663 360.158 142.704 362.826 142.704C365.564 142.704 368.267 142.656 370.935 142.558C368.473 145.272 365.839 147.881 363.044 150.377H363.048ZM390.439 125.925C392.151 129.034 393.66 132.212 394.962 135.448C390.822 136.199 386.637 136.774 382.422 137.171C383.842 135.356 385.217 133.519 386.547 131.66C387.899 129.772 389.197 127.86 390.439 125.925ZM381.575 129.35C379.54 132.198 377.391 134.991 375.13 137.73C371.143 137.96 367.024 138.079 362.826 138.079C358.627 138.079 354.578 137.974 350.66 137.769C348.341 135.039 346.151 132.242 344.09 129.376C342.028 126.511 340.118 123.602 338.358 120.651C340.127 117.686 342.031 114.776 344.072 111.922C346.11 109.069 348.282 106.282 350.586 103.559C354.584 103.315 358.679 103.188 362.821 103.188C366.964 103.188 371.085 103.317 375.078 103.561C377.357 106.275 379.519 109.052 381.564 111.891C383.609 114.729 385.54 117.626 387.356 120.579C385.562 123.555 383.637 126.476 381.581 129.343L381.575 129.35ZM393.416 77.6988C397.915 79.7895 399.664 88.2221 396.839 99.2802C396.653 99.9992 396.451 100.716 396.233 101.432C390.314 100.351 384.313 99.5864 378.269 99.1443C374.805 95.136 371.011 91.3199 366.912 87.722C367.921 86.9392 368.951 86.1778 370.001 85.4379C379.921 78.481 389.192 75.7352 393.416 77.6988Z" fill="white"/>
<path id="Vector_109" d="M362.821 110.872C365.195 110.872 367.515 111.439 369.488 112.501C371.461 113.564 372.999 115.074 373.907 116.841C374.815 118.608 375.053 120.552 374.59 122.428C374.127 124.303 372.984 126.026 371.306 127.379C369.628 128.731 367.49 129.652 365.162 130.025C362.835 130.398 360.422 130.207 358.229 129.475C356.037 128.743 354.163 127.503 352.844 125.913C351.526 124.323 350.822 122.454 350.822 120.541C350.822 119.271 351.132 118.014 351.735 116.84C352.338 115.667 353.222 114.601 354.336 113.703C355.45 112.805 356.773 112.093 358.229 111.607C359.685 111.121 361.246 110.871 362.821 110.872" fill="#53C1DE"/>
<path id="Vector_110" d="M365.831 49.5472C365.831 50.1192 365.62 50.6784 365.226 51.154C364.832 51.6296 364.271 52.0003 363.615 52.2192C362.96 52.4381 362.238 52.4954 361.542 52.3838C360.846 52.2722 360.206 51.9967 359.704 51.5923C359.202 51.1878 358.86 50.6725 358.722 50.1114C358.583 49.5504 358.655 48.9689 358.926 48.4404C359.198 47.9119 359.658 47.4602 360.248 47.1425C360.838 46.8247 361.532 46.655 362.242 46.655C362.714 46.6532 363.182 46.7267 363.618 46.8714C364.055 47.0161 364.451 47.2291 364.785 47.498C365.119 47.7669 365.383 48.0865 365.562 48.4382C365.742 48.79 365.833 49.1669 365.831 49.5472V49.5472Z" fill="#3F3D56"/>
<path id="Vector_111" d="M359.375 50.2773C359.091 49.863 358.937 49.3988 358.926 48.9254C358.916 48.452 359.05 47.9838 359.317 47.5618C359.583 47.1398 359.974 46.777 360.455 46.505C360.936 46.233 361.492 46.0602 362.075 46.0018C361.581 45.9878 361.088 46.0564 360.628 46.2032C360.168 46.35 359.751 46.5719 359.402 46.8549C359.054 47.1379 358.782 47.4759 358.603 47.8477C358.424 48.2195 358.343 48.617 358.364 49.0154C358.385 49.4137 358.508 49.8042 358.726 50.1624C358.943 50.5206 359.25 50.8387 359.627 51.0968C360.004 51.3548 360.443 51.5473 360.917 51.662C361.391 51.7767 361.889 51.8113 362.38 51.7634C361.763 51.7451 361.162 51.5986 360.636 51.3383C360.109 51.0779 359.675 50.7125 359.375 50.2773V50.2773Z" fill="#3F3D56"/>
<path id="Vector_112" d="M367.37 53.5753H357.756V65.6614H367.37V53.5753Z" fill="#3F3D56"/>
<path id="Vector_113" opacity="0.1" d="M367.37 53.5753H357.756V65.6614H367.37V53.5753Z" fill="black"/>
<path id="Vector_114" d="M342.568 97.4247C342.568 97.4247 341.541 99.6984 339.108 100.008C336.676 100.319 335.262 100.834 335.262 100.834L341.03 103.829L344.107 103.519C344.107 103.519 344.492 100.317 345.774 99.5938C347.056 98.8708 342.568 97.4247 342.568 97.4247Z" fill="#A0616A"/>
<path id="Vector_115" d="M384.225 97.4247C384.225 97.4247 385.252 99.6984 387.685 100.008C390.117 100.319 391.531 100.834 391.531 100.834L385.763 103.829L382.686 103.519C382.686 103.519 382.301 100.317 381.019 99.5938C379.737 98.8708 384.225 97.4247 384.225 97.4247Z" fill="#A0616A"/>
<path id="Vector_116" d="M356.154 77.3852C356.154 77.3852 354.617 78.0054 354.104 79.2459C354.104 79.2459 351.293 79.969 349.745 81.9308C349.745 81.9308 347.821 83.5842 347.566 84.41C347.311 85.2358 344.371 90.1943 344.371 90.1943C344.371 90.1943 341.422 97.9422 339.884 98.768C339.884 98.768 344.756 97.9422 345.653 101.867C345.653 101.867 346.805 101.867 348.087 98.2523C349.369 94.6371 352.446 90.1943 352.446 90.1943C352.446 90.1943 353.471 87.0966 354.368 86.5791C355.265 86.0617 356.675 83.687 357.957 84.3142C359.239 84.9414 367.699 84.2096 367.699 84.2096C367.699 84.2096 372.693 86.0634 372.819 87.3022C372.944 88.5409 373.843 88.6455 373.971 89.6786C374.099 90.7118 378.842 98.8708 378.842 98.8708C378.842 98.8708 379.739 101.136 379.997 101.658C379.997 101.658 382.807 96.1842 386.534 99.2837C386.534 99.2837 386.405 97.2174 385.252 95.9734C384.1 94.7294 379.099 85.025 379.099 85.025C379.099 85.025 378.587 83.5789 378.074 83.166C377.562 82.7531 373.586 79.4463 372.176 79.4463C372.176 79.4463 371.409 77.8974 370.512 77.6901L356.154 77.3852Z" fill="#3F3D56"/>
<path id="Vector_117" d="M344.617 102.796C343.616 103.12 342.528 103.229 341.459 103.114C340.389 102.998 339.376 102.661 338.516 102.136C337.681 101.619 336.766 101.191 335.794 100.864C334.434 100.421 332.808 100.094 332.313 100.834C331.416 102.178 343.207 105.483 343.207 105.483C343.207 105.483 344.747 104.76 344.617 102.796Z" fill="#3F3D56"/>
<path id="Vector_118" d="M382.176 102.796C383.177 103.12 384.265 103.229 385.334 103.114C386.404 102.998 387.417 102.661 388.277 102.136C389.112 101.619 390.027 101.191 390.999 100.864C392.359 100.421 393.985 100.094 394.48 100.834C395.377 102.178 383.585 105.483 383.585 105.483C383.585 105.483 382.046 104.76 382.176 102.796Z" fill="#3F3D56"/>
<path id="Vector_119" d="M360.344 60.3964C360.296 60.7553 360.149 61.1438 359.769 61.3337C359.457 61.4905 359.064 61.4783 358.705 61.5376C358.328 61.6136 357.979 61.76 357.685 61.9649C357.391 62.1697 357.161 62.4274 357.014 62.7171C356.726 63.3016 356.67 63.9436 356.852 64.5552C356.937 64.8546 357.047 65.1492 357.181 65.4367C357.557 66.2939 358.011 67.1442 358.713 67.8567C359.313 68.4232 359.987 68.9356 360.724 69.3847C361.18 69.6844 361.652 69.9893 362.214 70.1304C362.595 70.2115 362.987 70.2536 363.381 70.2558C363.868 70.2733 364.387 70.2855 364.808 70.0903C365.457 69.7889 365.649 69.1234 366.002 68.5885C366.3 68.1355 366.745 67.7505 367.024 67.2888C367.222 66.9249 367.368 66.5437 367.457 66.1528L368.056 64.0098C368.272 63.231 368.471 62.3529 367.928 61.6856C367.889 61.6313 367.834 61.5854 367.768 61.5515C367.664 61.5183 367.55 61.5093 367.439 61.5254C366.75 61.5615 366.063 61.4349 365.461 61.1612C365.367 61.1219 365.283 61.0687 365.213 61.0044C365.126 60.8928 365.074 60.7662 365.061 60.6351C365.003 60.3696 364.91 60.1097 364.784 59.8597C364.749 59.7697 364.684 59.689 364.596 59.6263C364.504 59.5798 364.4 59.5517 364.292 59.5444C363.366 59.4234 362.433 59.3449 361.496 59.3092C361.189 59.297 360.726 59.1977 360.514 59.4172C360.303 59.6367 360.37 60.135 360.344 60.3964Z" fill="#A0616A"/>
<path id="Vector_120" opacity="0.1" d="M360.344 60.3964C360.296 60.7553 360.149 61.1438 359.769 61.3337C359.457 61.4905 359.064 61.4783 358.705 61.5376C358.328 61.6136 357.979 61.76 357.685 61.9649C357.391 62.1697 357.161 62.4274 357.014 62.7171C356.726 63.3016 356.67 63.9436 356.852 64.5552C356.937 64.8546 357.047 65.1492 357.181 65.4367C357.557 66.2939 358.011 67.1442 358.713 67.8567C359.313 68.4232 359.987 68.9356 360.724 69.3847C361.18 69.6844 361.652 69.9893 362.214 70.1304C362.595 70.2115 362.987 70.2536 363.381 70.2558C363.868 70.2733 364.387 70.2855 364.808 70.0903C365.457 69.7889 365.649 69.1234 366.002 68.5885C366.3 68.1355 366.745 67.7505 367.024 67.2888C367.222 66.9249 367.368 66.5437 367.457 66.1528L368.056 64.0098C368.272 63.231 368.471 62.3529 367.928 61.6856C367.889 61.6313 367.834 61.5854 367.768 61.5515C367.664 61.5183 367.55 61.5093 367.439 61.5254C366.75 61.5615 366.063 61.4349 365.461 61.1612C365.367 61.1219 365.283 61.0687 365.213 61.0044C365.126 60.8928 365.074 60.7662 365.061 60.6351C365.003 60.3696 364.91 60.1097 364.784 59.8597C364.749 59.7697 364.684 59.689 364.596 59.6263C364.504 59.5798 364.4 59.5517 364.292 59.5444C363.366 59.4234 362.433 59.3449 361.496 59.3092C361.189 59.297 360.726 59.1977 360.514 59.4172C360.303 59.6367 360.37 60.135 360.344 60.3964Z" fill="black"/>
<path id="Vector_121" d="M358.608 61.6281C358.107 61.5076 357.588 61.442 357.066 61.433C355.829 61.4086 354.506 61.7518 353.793 62.5655C353.307 63.1527 353.129 63.8712 353.298 64.5638C353.47 65.25 353.857 65.8893 354.422 66.4211C354.748 66.7006 355.038 67.0065 355.287 67.334C355.628 67.8567 355.639 68.4822 355.732 69.0763C355.948 70.491 356.696 71.8204 356.993 73.2264C357.289 74.6324 357.034 76.2614 355.656 77.1552C355.425 77.305 355.144 77.4636 355.125 77.7023C355.094 78.0838 355.71 78.2458 356.184 78.2824C357.6 78.3904 359.053 78.4967 360.428 78.2023C360.997 78.0803 361.546 77.8904 362.125 77.8033C363.595 77.582 365.074 78.0368 366.547 78.2546C367.612 78.3963 368.69 78.4668 369.77 78.4654C370.021 78.4835 370.275 78.4567 370.512 78.387C370.629 78.3498 370.729 78.2836 370.796 78.1978C370.864 78.112 370.896 78.011 370.888 77.9096C370.84 77.7782 370.752 77.6585 370.633 77.5611C369.889 76.8207 369.662 75.8363 369.459 74.8972L368.778 71.742C368.412 70.0555 368.073 68.2226 369.063 66.7086C369.774 65.6196 371.087 64.853 371.837 63.7816C372.099 63.4577 372.217 63.0721 372.172 62.6874C372.06 62.1491 371.456 61.764 370.838 61.5393C369.648 61.1092 368.298 61.0692 367.072 61.4278C367.094 62.1822 366.856 62.9453 366.702 63.6927L366.441 64.9123C366.307 65.631 366.112 66.3413 365.855 67.0378C365.761 67.3165 365.602 67.578 365.386 67.8079C365.155 68.0148 364.873 68.1804 364.557 68.294C363.875 68.5629 363.125 68.7012 362.365 68.6982C362.036 68.7023 361.709 68.6617 361.397 68.578C360.894 68.4003 360.44 68.1432 360.063 67.8219C359.93 67.7307 359.812 67.6272 359.71 67.5135C359.602 67.3687 359.522 67.212 359.47 67.0483C359.295 66.6222 359.157 66.1867 359.057 65.7451C358.992 65.4071 358.971 65.0639 358.941 64.7224C358.856 63.7136 358.856 62.5986 358.608 61.6281Z" fill="#39FF14"/>
<path id="Vector_122" d="M357.308 81.6206C357.308 81.6206 356.796 87.0966 360 88.0252C363.204 88.9538 360.385 83.4796 360.385 83.4796L359.358 81.828L357.308 81.6206Z" fill="#A0616A"/>
<path id="Vector_123" d="M368.203 81.6206C368.203 81.6206 368.715 87.0966 365.511 88.0252C362.307 88.9538 365.126 83.4796 365.126 83.4796L366.153 81.828L368.203 81.6206Z" fill="#A0616A"/>
<path id="Vector_124" opacity="0.1" d="M354.487 63.3443L353.462 64.6875C353.462 64.6875 354.359 69.3359 354.487 70.1617C354.597 70.7577 354.77 71.3451 355.001 71.9179C355.001 71.9179 355.129 74.3972 355.129 75.3276C355.129 76.2579 355.778 77.8068 355.778 77.8068C355.868 78.6849 356.086 79.5515 356.426 80.3888C356.939 81.5248 357.451 82.8681 357.451 82.8681C357.451 82.8681 358.1 81.422 360.655 83.5911C360.941 83.3571 361.102 83.0417 361.102 82.713C361.102 82.3844 360.941 82.069 360.655 81.8349C360.655 81.8349 359.888 79.0473 359.888 77.5995C359.888 76.1517 358.476 69.2366 358.476 69.2366C358.476 69.2366 357.559 61.3755 354.487 63.3443Z" fill="black"/>
<path id="Vector_125" d="M354.232 63.2345L353.207 64.5778C353.207 64.5778 354.104 69.2261 354.232 70.052C354.343 70.648 354.515 71.2354 354.748 71.8082C354.748 71.8082 354.876 74.2874 354.876 75.216C354.876 76.1447 355.525 77.6953 355.525 77.6953C355.614 78.5735 355.832 79.4401 356.173 80.2773C356.686 81.415 357.2 82.7566 357.2 82.7566C357.2 82.7566 357.849 81.3105 360.404 83.4796C360.69 83.2456 360.85 82.9306 360.85 82.6024C360.85 82.2742 360.69 81.9591 360.404 81.7251C360.404 81.7251 359.635 78.9375 359.635 77.4897C359.635 76.0419 358.225 69.1268 358.225 69.1268C358.225 69.1268 357.308 61.2709 354.232 63.2345Z" fill="#39FF14"/>
<path id="Vector_126" opacity="0.1" d="M371.152 62.5115L371.8 63.1265C371.8 63.1265 372.555 66.6424 370.888 71.0852L370.375 75.1133C370.375 75.1133 369.478 78.5229 369.351 79.3487C369.223 80.1746 369.223 80.2774 368.966 80.5875C368.888 80.66 368.845 80.7528 368.845 80.8488C368.845 80.9448 368.888 81.0376 368.966 81.1102L368.196 83.3751C368.196 83.3751 367.044 82.2392 364.737 83.6852C364.737 83.6852 364.088 82.8594 364.607 82.1364C365.126 81.4133 365.12 81.1032 364.992 80.8959C364.865 80.6885 365.504 79.6571 365.504 79.4498C365.504 79.2425 366.408 74.4948 366.408 74.4948C366.408 74.4948 366.793 69.8464 367.178 68.2975C367.414 67.3445 367.409 65.2207 367.368 63.7258C367.327 62.1682 369.666 61.325 371.044 62.4191C371.076 62.447 371.115 62.4731 371.152 62.5115Z" fill="black"/>
<path id="Vector_127" d="M371.536 62.2989L372.185 62.9139C372.185 62.9139 372.94 66.4316 371.273 70.8726L370.76 74.9007C370.76 74.9007 369.863 78.3103 369.736 79.1362C369.608 79.962 369.606 80.0665 369.351 80.3767C369.272 80.449 369.229 80.5419 369.229 80.638C369.229 80.7341 369.272 80.827 369.351 80.8993L368.585 83.1712C368.585 83.1712 367.433 82.0335 365.126 83.4796C365.126 83.4796 364.478 82.6538 364.999 81.9308C365.52 81.2077 365.511 80.8976 365.383 80.692C365.256 80.4864 365.896 79.4515 365.896 79.2459C365.896 79.0403 366.793 74.2874 366.793 74.2874C366.793 74.2874 367.178 69.6391 367.563 68.0884C367.948 66.5378 367.69 61.8912 367.69 61.8912C367.69 61.8912 369.742 60.7553 371.536 62.2989Z" fill="#39FF14"/>
<path id="Vector_128" d="M362.947 60.8598C365.779 60.8598 368.075 59.0096 368.075 56.7272C368.075 54.4448 365.779 52.5945 362.947 52.5945C360.115 52.5945 357.818 54.4448 357.818 56.7272C357.818 59.0096 360.115 60.8598 362.947 60.8598Z" fill="#A0616A"/>
<path id="Vector_129" opacity="0.1" d="M365.621 50.5229C365.375 51.0774 364.924 51.558 364.329 51.9005C363.734 52.243 363.024 52.4309 362.293 52.4393C361.562 52.4476 360.846 52.2759 360.239 51.9471C359.633 51.6184 359.165 51.1482 358.899 50.5995C360.901 49.9496 362.947 50.5281 362.947 50.5281C363.969 50.2389 364.856 50.265 365.621 50.5229Z" fill="black"/>
<path id="Vector_130" d="M362.947 50.7355C362.947 50.7355 353.077 47.9479 355.514 61.4783C355.514 61.4783 357.693 62.6143 359.358 61.8912C359.358 61.8912 358.205 52.4917 362.692 52.9046C367.178 53.3175 366.408 61.6856 366.408 61.6856C366.408 61.6856 368.972 62.3041 369.742 61.1629C370.512 60.0218 369.485 48.8835 362.947 50.7355Z" fill="#3F3D56"/>
<path id="Vector_131" opacity="0.1" d="M362.692 52.2844C359.613 52.0021 359.189 56.3386 359.232 59.0879C359.269 56.3543 359.84 52.6415 362.692 52.9046C365.894 53.199 366.419 57.5495 366.456 60.0131C366.493 57.7516 366.186 52.6067 362.692 52.2844Z" fill="black"/>
<path id="Vector_132" opacity="0.1" d="M355.514 60.8581C355.291 59.6737 355.163 58.4789 355.131 57.2812C355.12 58.6862 355.248 60.0897 355.514 61.4783C355.514 61.4783 357.693 62.6143 359.358 61.8912C359.358 61.8912 359.332 61.6682 359.302 61.2936C357.643 61.9679 355.514 60.8581 355.514 60.8581Z" fill="black"/>
<path id="Vector_133" opacity="0.1" d="M369.742 60.5566C369.024 61.6159 366.752 61.1507 366.445 61.0793C366.43 61.4626 366.408 61.6926 366.408 61.6926C366.408 61.6926 368.972 62.3111 369.742 61.1699C369.9 60.9364 369.982 60.2761 369.958 59.3928C369.937 59.959 369.861 60.3824 369.742 60.5566Z" fill="black"/>
</g>
<path id="Vector_134" d="M423.659 163.241C424.683 161.711 423.52 159.836 422.184 158.472C420.848 157.108 419.216 155.684 419.25 153.942C419.3 151.442 422.591 149.968 425.222 148.642C427.172 147.659 428.971 146.494 430.581 145.17C431.23 144.638 431.85 144.07 432.229 143.391C432.774 142.415 432.759 141.3 432.724 140.234C432.61 136.667 432.394 133.105 432.075 129.547" stroke="#3F3D56" stroke-width="4" stroke-miterlimit="10"/>
<path id="Vector_135" d="M437.065 129.359C437.028 128.706 436.788 128.072 436.366 127.514C435.944 126.956 435.355 126.493 434.652 126.167L433.571 127.892L433.604 125.801C432.621 125.567 431.57 125.59 430.604 125.868C429.639 126.146 428.808 126.665 428.231 127.348C427.655 128.032 427.363 128.845 427.398 129.671C427.433 130.497 427.793 131.293 428.426 131.943C429.058 132.593 429.931 133.065 430.918 133.289C431.905 133.514 432.955 133.48 433.916 133.192C434.878 132.904 435.7 132.377 436.266 131.688C436.832 130.999 437.111 130.182 437.063 129.357L437.065 129.359Z" fill="#39FF14"/>
<path id="Vector_136" d="M428.443 155.735C427.936 156.53 427.105 157.16 426.09 157.52C425.074 157.879 423.936 157.947 422.866 157.711C421.797 157.474 420.86 156.949 420.214 156.222C419.568 155.496 419.252 154.612 419.318 153.72C419.385 152.828 419.83 151.981 420.579 151.322C421.328 150.663 422.336 150.231 423.433 150.1C424.53 149.969 425.65 150.145 426.605 150.6C427.559 151.055 428.291 151.761 428.677 152.599L425.65 154.58L428.973 153.958C428.975 154.576 428.793 155.185 428.443 155.735V155.735Z" fill="#39FF14"/>
<path id="Vector_137" d="M426.054 148.168C424.871 148.209 423.711 147.898 422.793 147.295C421.875 146.692 421.264 145.838 421.075 144.896C420.886 143.954 421.132 142.989 421.768 142.184C422.403 141.378 423.383 140.789 424.521 140.527L424.495 142.133L425.589 140.391H425.602C426.239 140.363 426.877 140.437 427.478 140.609C428.08 140.781 428.633 141.047 429.106 141.391C429.58 141.736 429.964 142.153 430.236 142.618C430.509 143.083 430.664 143.587 430.694 144.1C430.724 144.614 430.627 145.127 430.41 145.611C430.192 146.094 429.858 146.538 429.427 146.917C428.996 147.296 428.476 147.602 427.897 147.819C427.318 148.035 426.692 148.157 426.054 148.177V148.168Z" fill="#39FF14"/>
<path id="Vector_138" d="M437.794 141.873C437.046 141.902 436.3 141.79 435.615 141.546C434.93 141.302 434.324 140.934 433.846 140.469C433.368 140.005 433.03 139.458 432.859 138.87C432.688 138.283 432.689 137.671 432.861 137.084C433.033 136.497 433.372 135.95 433.851 135.486C434.33 135.022 434.937 134.655 435.622 134.412C436.308 134.169 437.054 134.058 437.802 134.087C438.55 134.117 439.279 134.285 439.932 134.58L439.067 136.467L440.825 135.108C441.529 135.628 442.026 136.305 442.253 137.052C442.48 137.8 442.428 138.585 442.103 139.308C441.778 140.032 441.194 140.661 440.425 141.118C439.656 141.574 438.737 141.837 437.783 141.873H437.794Z" fill="#39FF14"/>
<path id="Vector_139" opacity="0.1" d="M436.417 130.397C435.299 130.496 434.214 130.777 433.094 130.833C431.974 130.888 430.744 130.672 430.037 129.962C429.654 129.583 429.464 129.106 429.142 128.693C428.836 128.31 428.418 127.993 427.924 127.77C427.612 128.264 427.435 128.806 427.404 129.36C427.372 129.913 427.488 130.466 427.743 130.981C427.998 131.496 428.386 131.961 428.882 132.345C429.377 132.73 429.969 133.024 430.617 133.21C431.266 133.395 431.955 133.467 432.641 133.42C433.326 133.374 433.992 133.21 434.592 132.94C435.193 132.67 435.715 132.3 436.124 131.854C436.533 131.408 436.819 130.897 436.964 130.355C436.78 130.371 436.598 130.381 436.417 130.397Z" fill="black"/>
<path id="Vector_140" opacity="0.1" d="M437.794 141.873C436.96 141.904 436.131 141.761 435.387 141.457C434.642 141.154 434.008 140.7 433.545 140.141C433.082 139.581 432.806 138.935 432.745 138.265C432.683 137.594 432.838 136.922 433.193 136.314C433.578 136.522 433.909 136.789 434.166 137.1C434.51 137.518 434.72 138.002 435.124 138.387C435.876 139.1 437.165 139.333 438.332 139.291C439.5 139.25 440.624 138.981 441.792 138.894C441.954 138.884 442.116 138.875 442.28 138.871C442.039 139.697 441.471 140.437 440.662 140.979C439.852 141.52 438.845 141.834 437.794 141.873Z" fill="black"/>
<path id="Vector_141" opacity="0.1" d="M426.054 148.168C425.229 148.199 424.408 148.06 423.668 147.762C422.929 147.465 422.297 147.02 421.832 146.47C421.366 145.92 421.084 145.283 421.011 144.62C420.938 143.957 421.077 143.289 421.414 142.682C421.813 142.893 422.16 143.162 422.437 143.475C422.813 143.901 423.047 144.393 423.488 144.788C424.303 145.52 425.674 145.778 426.91 145.753C428.108 145.733 429.26 145.496 430.452 145.422C430.159 146.189 429.579 146.865 428.792 147.356C428.005 147.848 427.049 148.131 426.054 148.168V148.168Z" fill="black"/>
<path id="Vector_142" opacity="0.1" d="M428.443 155.735C427.883 156.63 426.915 157.317 425.742 157.653C424.57 157.988 423.281 157.947 422.146 157.536C421.01 157.126 420.114 156.378 419.645 155.449C419.176 154.52 419.169 153.481 419.626 152.548C420.025 152.759 420.383 153.016 420.688 153.311C421.149 153.763 421.451 154.275 421.985 154.695C422.973 155.477 424.569 155.799 425.989 155.829C426.809 155.836 427.628 155.805 428.443 155.735V155.735Z" fill="black"/>
<path id="Vector_143" d="M416.366 161.479C416.366 161.479 420.182 161.385 421.339 160.725C422.495 160.064 427.211 159.277 427.496 160.334C427.782 161.392 433.232 165.6 428.923 165.627C424.614 165.655 418.911 165.087 417.763 164.523C416.615 163.958 416.366 161.479 416.366 161.479Z" fill="#656380"/>
<path id="Vector_144" opacity="0.2" d="M428.992 165.267C424.683 165.295 418.98 164.725 417.832 164.162C416.967 163.732 416.61 162.193 416.494 161.483H416.366C416.366 161.483 416.608 163.964 417.756 164.526C418.904 165.089 424.608 165.659 428.917 165.631C430.16 165.631 430.59 165.267 430.566 164.739C430.393 165.054 429.92 165.253 428.992 165.267Z" fill="black"/>
<path id="Vector_145" d="M314.751 53.4604L310.805 55.4762L313.201 51.9655C312.525 51.53 311.688 51.2884 310.823 51.2791H310.758C310.484 51.2822 310.211 51.2659 309.94 51.2303L308.602 51.9133L309.175 51.0735C308.228 50.8068 307.409 50.3063 306.836 49.6431L304.442 50.8627L305.956 48.6465C304.555 47.2928 302.67 46.4617 300.592 46.4617C298.103 46.4617 295.887 47.6552 294.456 49.5142C294.033 50.07 293.435 50.5258 292.722 50.8355C292.01 51.1451 291.209 51.2975 290.4 51.2774H290.266C287.518 51.2774 285.293 53.788 285.293 56.8857C285.293 59.9835 287.52 62.4923 290.266 62.4923C290.869 62.4909 291.463 62.3713 291.996 62.1439C293.788 61.3929 296.14 61.379 298.017 62.0498C298.821 62.3414 299.693 62.4929 300.576 62.4944C301.458 62.4959 302.33 62.3474 303.137 62.0585C305 61.4017 307.324 61.4156 309.106 62.1526C309.634 62.3779 310.222 62.4974 310.82 62.501C313.568 62.501 315.793 59.9904 315.793 56.8944C315.809 55.6973 315.451 54.5163 314.751 53.4604V53.4604Z" fill="#F2F2F2"/>
<path id="Vector_146" opacity="0.03" d="M307.311 61.6647C305.876 61.4447 304.391 61.5745 303.048 62.0375C302.242 62.3261 301.37 62.4746 300.488 62.4731C299.606 62.4716 298.735 62.3202 297.93 62.0288C296.052 61.358 293.699 61.372 291.907 62.1229C291.374 62.3503 290.78 62.4699 290.177 62.4713C287.736 62.4713 285.706 60.4886 285.283 57.8752C285.77 57.589 286.184 57.2292 286.502 56.8159C287.942 54.9587 290.149 53.7617 292.638 53.7617C295.126 53.7617 297.316 54.9413 298.748 56.7794C299.175 57.3347 299.772 57.7918 300.483 58.1065C301.194 58.4212 301.993 58.5828 302.804 58.5756H302.86C304.806 58.5774 306.492 59.8335 307.311 61.6647Z" fill="black"/>
<path id="Vector_147" d="M417.895 57.5651L415.934 58.5704L417.129 56.8281C416.792 56.6081 416.372 56.4854 415.938 56.4797H415.908C415.771 56.4812 415.634 56.4731 415.499 56.4553L414.831 56.8037L415.112 56.3751C414.64 56.2425 414.231 55.9931 413.945 55.6626L412.751 56.2723L413.506 55.1677C413.188 54.8375 412.783 54.5684 412.321 54.3797C411.858 54.1911 411.35 54.0877 410.831 54.0771C409.588 54.0771 408.483 54.6729 407.77 55.5998C407.558 55.8759 407.259 56.1019 406.904 56.2549C406.548 56.4079 406.149 56.4824 405.746 56.471H405.679C404.308 56.471 403.197 57.7237 403.197 59.2586C403.197 60.7935 404.308 62.0549 405.679 62.0549C405.981 62.0541 406.277 61.9943 406.544 61.8807C407.01 61.6981 407.521 61.5993 408.039 61.5911C408.558 61.583 409.072 61.6658 409.547 61.8337C409.949 61.9778 410.384 62.0523 410.824 62.0523C411.264 62.0523 411.699 61.9778 412.1 61.8337C412.572 61.6691 413.082 61.5882 413.595 61.5963C414.109 61.6044 414.614 61.7014 415.078 61.8807C415.344 61.9944 415.641 62.0542 415.942 62.0549C417.313 62.0549 418.424 60.804 418.424 59.2586C418.426 58.6673 418.244 58.085 417.895 57.5651V57.5651Z" fill="#F2F2F2"/>
<path id="Vector_148" opacity="0.03" d="M414.187 61.6577C413.471 61.5488 412.731 61.6137 412.062 61.8441C411.66 61.9883 411.225 62.0628 410.785 62.0628C410.345 62.0628 409.91 61.9883 409.508 61.8441C409.033 61.6762 408.518 61.5934 407.999 61.6016C407.48 61.6097 406.97 61.7085 406.503 61.8912C406.237 62.0052 405.94 62.0651 405.638 62.0654C404.419 62.0654 403.407 61.0775 403.195 59.7743C403.437 59.6328 403.644 59.4554 403.805 59.2516C404.518 58.3248 405.625 57.7307 406.866 57.7307C408.107 57.7307 409.199 58.3178 409.912 59.2342C410.125 59.5114 410.423 59.7396 410.778 59.8965C411.133 60.0534 411.532 60.1338 411.936 60.1298H411.969C412.939 60.1176 413.772 60.7448 414.187 61.6577Z" fill="black"/>
<path id="Vector_149" d="M289.096 83.6016L292.266 85.2184L290.346 82.4046C290.89 82.0554 291.564 81.8623 292.259 81.8558H292.309C292.526 81.8585 292.743 81.8456 292.958 81.8175L294.028 82.3646L293.563 81.6921C294.321 81.4772 294.977 81.0763 295.438 80.5457L297.355 81.5248L296.157 79.7494C297.28 78.6657 298.791 78.0072 300.453 78.0072C302.449 78.0072 304.224 78.9619 305.372 80.4463C305.71 80.8912 306.188 81.2561 306.758 81.5042C307.327 81.7523 307.968 81.8748 308.615 81.8593H308.723C310.924 81.8593 312.708 83.8699 312.708 86.3509C312.708 88.8319 310.924 90.8442 308.723 90.8442C308.238 90.8427 307.761 90.7464 307.333 90.5637C306.584 90.2703 305.764 90.1117 304.931 90.0987C304.099 90.0858 303.272 90.2189 302.51 90.4888C301.863 90.7215 301.163 90.8418 300.456 90.8418C299.748 90.8418 299.048 90.7215 298.402 90.4888C297.644 90.2244 296.825 90.0943 296 90.1072C295.175 90.1201 294.363 90.2758 293.619 90.5637C293.195 90.7416 292.724 90.8353 292.246 90.8372C290.043 90.8372 288.26 88.8266 288.26 86.3439C288.249 85.3878 288.537 84.4448 289.096 83.6016V83.6016Z" fill="#F2F2F2"/>
<path id="Vector_150" opacity="0.03" d="M295.053 90.1752C296.203 90.0005 297.392 90.1047 298.469 90.4748C299.115 90.7076 299.815 90.8279 300.523 90.8279C301.23 90.8279 301.93 90.7076 302.577 90.4748C303.34 90.2049 304.166 90.0718 305 90.0848C305.833 90.0977 306.653 90.2563 307.402 90.5497C307.83 90.7325 308.306 90.8287 308.79 90.8302C310.747 90.8302 312.373 89.243 312.712 87.1488C312.322 86.9186 311.99 86.6299 311.735 86.2986C310.587 84.8107 308.812 83.8594 306.816 83.8594C304.821 83.8594 303.069 84.8037 301.921 86.2777C301.58 86.7218 301.102 87.0873 300.534 87.3391C299.966 87.5909 299.327 87.7204 298.678 87.7151H298.629C297.059 87.7029 295.71 88.7099 295.053 90.1752Z" fill="black"/>
</g>
</g>
<defs>
<filter id="filter0_d_1_2" x="149.256" y="262.433" width="221.845" height="56.5171" filterUnits="userSpaceOnUse" color-interpolation-filters="sRGB">
<feFlood flood-opacity="0" result="BackgroundImageFix"/>
<feColorMatrix in="SourceAlpha" type="matrix" values="0 0 0 0 0 0 0 0 0 0 0 0 0 0 0 0 0 0 127 0" result="hardAlpha"/>
<feOffset dy="4"/>
<feGaussianBlur stdDeviation="2"/>
<feComposite in2="hardAlpha" operator="out"/>
<feColorMatrix type="matrix" values="0 0 0 0 0 0 0 0 0 0 0 0 0 0 0 0 0 0 0.25 0"/>
<feBlend mode="normal" in2="BackgroundImageFix" result="effect1_dropShadow_1_2"/>
<feBlend mode="normal" in="SourceGraphic" in2="effect1_dropShadow_1_2" result="shape"/>
</filter>
<clipPath id="clip0_1_2">
<rect width="1206" height="580" fill="white"/>
</clipPath>
</defs>
</svg>
