<svg width="1014" height="552" viewBox="0 0 1014 552" fill="none" xmlns="http://www.w3.org/2000/svg">
<g id="Three">
<path id="Vector" d="M507 26V212" stroke="#3F3D56" stroke-width="2" stroke-miterlimit="10"/>
<path id="Vector_2" d="M135 212V26H879V212" stroke="#3F3D56" stroke-width="2" stroke-miterlimit="10"/>
<path id="Vector_3" d="M507 52C581.558 52 642 40.3594 642 26C642 11.6406 581.558 0 507 0C432.442 0 372 11.6406 372 26C372 40.3594 432.442 52 507 52Z" fill="#F2F2F2"/>
<path id="Vector_4" d="M135 552C209.558 552 270 547.971 270 543C270 538.029 209.558 534 135 534C60.4416 534 0 538.029 0 543C0 547.971 60.4416 552 135 552Z" fill="#3F3D56"/>
<path id="Vector_5" d="M879 552C953.558 552 1014 547.971 1014 543C1014 538.029 953.558 534 879 534C804.442 534 744 538.029 744 543C744 547.971 804.442 552 879 552Z" fill="#3F3D56"/>
<path id="Vector_6" d="M507 552C581.558 552 642 547.971 642 543C642 538.029 581.558 534 507 534C432.442 534 372 538.029 372 543C372 547.971 432.442 552 507 552Z" fill="#3F3D56"/>
<path id="Vector_7" d="M507 41C515.284 41 522 34.2843 522 26C522 17.7157 515.284 11 507 11C498.716 11 492 17.7157 492 26C492 34.2843 498.716 41 507 41Z" fill="#39FF14"/>
<path id="Vector_8" d="M128 513C171.63 513 207 477.63 207 434C207 390.37 171.63 355 128 355C84.3695 355 49 390.37 49 434C49 477.63 84.3695 513 128 513Z" fill="#39FF14"/>
<path id="Vector_9" d="M116 496H92V539H116V496Z" fill="#39FF14"/>
<path id="Vector_10" d="M164 496H140V539H164V496Z" fill="#39FF14"/>
<path id="Vector_11" d="M112 547C123.046 547 132 543.642 132 539.5C132 535.358 123.046 532 112 532C100.954 532 92 535.358 92 539.5C92 543.642 100.954 547 112 547Z" fill="#39FF14"/>
<path id="Vector_12" d="M160 546C171.046 546 180 542.642 180 538.5C180 534.358 171.046 531 160 531C148.954 531 140 534.358 140 538.5C140 542.642 148.954 546 160 546Z" fill="#39FF14"/>
<path id="Vector_13" d="M130 441C144.912 441 157 428.912 157 414C157 399.088 144.912 387 130 387C115.088 387 103 399.088 103 414C103 428.912 115.088 441 130 441Z" fill="white"/>
<path id="pupil1" d="M130 423C134.971 423 139 418.971 139 414C139 409.029 134.971 405 130 405C125.029 405 121 409.029 121 414C121 418.971 125.029 423 130 423Z" fill="#3F3D56"/>
<path id="Vector_14" d="M51.3673 360.532C44.9884 331.965 65.3792 303.098 96.9113 296.057C128.443 289.017 159.176 306.467 165.555 335.035C171.934 363.603 151.037 374.139 119.505 381.18C87.9724 388.221 57.7462 389.1 51.3673 360.532Z" fill="#3F3D56"/>
<path id="Vector_15" d="M507 513C550.63 513 586 477.63 586 434C586 390.37 550.63 355 507 355C463.37 355 428 390.37 428 434C428 477.63 463.37 513 507 513Z" fill="#39FF14"/>
<path id="Vector_16" d="M495 496H471V539H495V496Z" fill="#39FF14"/>
<path id="Vector_17" d="M543 496H519V539H543V496Z" fill="#39FF14"/>
<path id="Vector_18" d="M491 547C502.046 547 511 543.642 511 539.5C511 535.358 502.046 532 491 532C479.954 532 471 535.358 471 539.5C471 543.642 479.954 547 491 547Z" fill="#39FF14"/>
<path id="Vector_19" d="M539 546C550.046 546 559 542.642 559 538.5C559 534.358 550.046 531 539 531C527.954 531 519 534.358 519 538.5C519 542.642 527.954 546 539 546Z" fill="#39FF14"/>
<path id="Vector_20" d="M509 441C523.912 441 536 428.912 536 414C536 399.088 523.912 387 509 387C494.088 387 482 399.088 482 414C482 428.912 494.088 441 509 441Z" fill="white"/>
<path id="pupil2" d="M509 423C513.971 423 518 418.971 518 414C518 409.029 513.971 405 509 405C504.029 405 500 409.029 500 414C500 418.971 504.029 423 509 423Z" fill="#3F3D56"/>
<path id="Vector_21" d="M430.367 360.532C423.988 331.965 444.379 303.098 475.911 296.057C507.443 289.017 510.621 306.432 517 335C523.379 363.568 530.037 374.139 498.505 381.18C466.972 388.221 436.746 389.1 430.367 360.532Z" fill="#3F3D56"/>
<path id="Vector_22" d="M879 513C922.63 513 958 477.63 958 434C958 390.37 922.63 355 879 355C835.37 355 800 390.37 800 434C800 477.63 835.37 513 879 513Z" fill="#39FF14"/>
<path id="Vector_23" d="M867 496H843V539H867V496Z" fill="#39FF14"/>
<path id="Vector_24" d="M915 496H891V539H915V496Z" fill="#39FF14"/>
<path id="Vector_25" d="M863 547C874.046 547 883 543.642 883 539.5C883 535.358 874.046 532 863 532C851.954 532 843 535.358 843 539.5C843 543.642 851.954 547 863 547Z" fill="#39FF14"/>
<path id="Vector_26" d="M911 546C922.046 546 931 542.642 931 538.5C931 534.358 922.046 531 911 531C899.954 531 891 534.358 891 538.5C891 542.642 899.954 546 911 546Z" fill="#39FF14"/>
<path id="Vector_27" d="M881 441C895.912 441 908 428.912 908 414C908 399.088 895.912 387 881 387C866.088 387 854 399.088 854 414C854 428.912 866.088 441 881 441Z" fill="white"/>
<path id="pupil3" d="M881 423C885.971 423 890 418.971 890 414C890 409.029 885.971 405 881 405C876.029 405 872 409.029 872 414C872 418.971 876.029 423 881 423Z" fill="#3F3D56"/>
<path id="Vector_28" d="M802.367 360.532C795.988 331.965 816.379 303.098 847.911 296.057C879.443 289.017 910.176 306.467 916.555 335.035C922.934 363.603 902.037 374.139 870.505 381.18C838.972 388.221 808.746 389.1 802.367 360.532Z" fill="#39FF14"/>
<path id="Vector_29" d="M544.555 335.035C538.183 306.497 507.507 289.055 476.01 296.038L497.983 381.293C498.157 381.255 498.33 381.219 498.505 381.18C530.037 374.139 550.934 363.603 544.555 335.035Z" fill="#39FF14"/>
<path id="Vector_30" d="M492 26C492 29.9782 493.58 33.7936 496.393 36.6066C499.206 39.4196 503.022 41 507 41V11C503.022 11 499.206 12.5804 496.393 15.3934C493.58 18.2064 492 22.0218 492 26V26Z" fill="#3F3D56"/>
<path id="Vector_31" d="M395 355.766C395 414.246 360.234 434.666 317.348 434.666C274.462 434.666 239.696 414.246 239.696 355.766C239.696 297.285 317.348 222.888 317.348 222.888C317.348 222.888 395 297.285 395 355.766Z" fill="#F2F2F2"/>
<path id="Vector_32" d="M314.519 425.72L315.314 376.777L348.412 316.227L315.439 369.099L315.797 347.092L338.607 303.285L315.891 341.268L316.534 301.688L340.96 266.812L316.635 295.464L317.037 222.888L314.512 318.966L314.72 315.002L289.886 276.99L314.322 322.611L312.008 366.815L311.939 365.642L283.309 325.639L311.852 369.787L311.563 375.315L311.511 375.398L311.535 375.852L305.664 488.003H313.507L314.449 430.075L342.921 386.035L314.519 425.72Z" fill="#3F3D56"/>
<path id="Vector_33" d="M309 496C323.912 496 336 492.418 336 488C336 483.582 323.912 480 309 480C294.088 480 282 483.582 282 488C282 492.418 294.088 496 309 496Z" fill="#3F3D56"/>
<path id="Vector_34" d="M771 355.766C771 414.246 736.234 434.666 693.348 434.666C650.462 434.666 615.696 414.246 615.696 355.766C615.696 297.285 693.348 222.888 693.348 222.888C693.348 222.888 771 297.285 771 355.766Z" fill="#F2F2F2"/>
<path id="Vector_35" d="M690.519 425.72L691.314 376.777L724.412 316.227L691.439 369.099L691.797 347.092L714.607 303.285L691.891 341.268L692.534 301.688L716.96 266.812L692.635 295.464L693.037 222.888L690.512 318.966L690.72 315.002L665.886 276.99L690.322 322.611L688.008 366.815L687.939 365.642L659.309 325.639L687.852 369.787L687.563 375.315L687.511 375.398L687.535 375.852L681.664 488.003H689.507L690.449 430.075L718.921 386.035L690.519 425.72Z" fill="#3F3D56"/>
<path id="Vector_36" d="M686 496C700.912 496 713 492.418 713 488C713 483.582 700.912 480 686 480C671.088 480 659 483.582 659 488C659 492.418 671.088 496 686 496Z" fill="#3F3D56"/>
</g>
</svg>
